<mxfile host="65bd71144e">
    <diagram id="Pz1OiAY06B9FlmwxG33Y" name="Figure 1">
        <mxGraphModel dx="1270" dy="764" grid="1" gridSize="10" guides="1" tooltips="1" connect="1" arrows="1" fold="1" page="1" pageScale="1" pageWidth="827" pageHeight="1169" math="0" shadow="0">
            <root>
                <mxCell id="iUNAVm8e6Q1iuNqbtV6v-0"/>
                <mxCell id="iUNAVm8e6Q1iuNqbtV6v-1" parent="iUNAVm8e6Q1iuNqbtV6v-0"/>
                <mxCell id="iUNAVm8e6Q1iuNqbtV6v-40" style="edgeStyle=none;html=1;fontSize=14;" edge="1" parent="iUNAVm8e6Q1iuNqbtV6v-1" source="iUNAVm8e6Q1iuNqbtV6v-31" target="iUNAVm8e6Q1iuNqbtV6v-33">
                    <mxGeometry relative="1" as="geometry"/>
                </mxCell>
                <mxCell id="iUNAVm8e6Q1iuNqbtV6v-47" value="fMRIPrep" style="edgeLabel;html=1;align=center;verticalAlign=middle;resizable=0;points=[];fontSize=14;" vertex="1" connectable="0" parent="iUNAVm8e6Q1iuNqbtV6v-40">
                    <mxGeometry x="-0.2732" y="1" relative="1" as="geometry">
                        <mxPoint x="1" as="offset"/>
                    </mxGeometry>
                </mxCell>
                <mxCell id="iUNAVm8e6Q1iuNqbtV6v-31" value="julia2018&lt;br&gt;rs-fMRI" style="shape=cylinder3;whiteSpace=wrap;html=1;boundedLbl=1;backgroundOutline=1;size=15;" vertex="1" parent="iUNAVm8e6Q1iuNqbtV6v-1">
                    <mxGeometry x="300" y="470" width="60" height="80" as="geometry"/>
                </mxCell>
                <mxCell id="iUNAVm8e6Q1iuNqbtV6v-24" value="&lt;div&gt;&lt;span&gt;100 Ã— 4-fold cross-validation&lt;/span&gt;&lt;/div&gt;&lt;b&gt;Evaluation metric:&lt;/b&gt; accuracy" style="rounded=0;whiteSpace=wrap;html=1;fontSize=16;fillColor=#eeeeee;strokeWidth=2;align=left;verticalAlign=top;fontStyle=0;dashed=1;spacingLeft=5;strokeColor=#36393d;" vertex="1" parent="iUNAVm8e6Q1iuNqbtV6v-1">
                    <mxGeometry x="470" y="350" width="650" height="102" as="geometry"/>
                </mxCell>
                <mxCell id="iUNAVm8e6Q1iuNqbtV6v-25" value="preprocessing" style="shape=step;perimeter=stepPerimeter;whiteSpace=wrap;html=1;fixedSize=1;spacingLeft=15;align=left;fontSize=14;strokeWidth=2;spacing=0;spacingBottom=0;spacingTop=-2;fontFamily=Helvetica Neue;size=10;fillColor=#e1d5e7;strokeColor=#9673a6;fontStyle=1;fontColor=#A680B8;" vertex="1" parent="iUNAVm8e6Q1iuNqbtV6v-1">
                    <mxGeometry x="367" y="400" width="120" height="40" as="geometry"/>
                </mxCell>
                <mxCell id="iUNAVm8e6Q1iuNqbtV6v-26" value="&lt;font style=&quot;font-size: 14px&quot;&gt;parcellation&lt;br&gt;&lt;/font&gt;&lt;font style=&quot;font-size: 11px&quot;&gt;+ remove confounds&lt;/font&gt;" style="shape=step;perimeter=stepPerimeter;whiteSpace=wrap;html=1;fixedSize=1;spacingLeft=-2;align=center;fontSize=13;strokeWidth=2;fillColor=#dae8fc;strokeColor=#6c8ebf;spacingTop=-2;spacing=0;fontFamily=Helvetica Neue;size=10;fontStyle=1;fontColor=#7EA6E0;" vertex="1" parent="iUNAVm8e6Q1iuNqbtV6v-1">
                    <mxGeometry x="481" y="400" width="135" height="40" as="geometry"/>
                </mxCell>
                <mxCell id="iUNAVm8e6Q1iuNqbtV6v-27" value="network aggregation" style="shape=step;perimeter=stepPerimeter;whiteSpace=wrap;html=1;fixedSize=1;spacingLeft=4;align=center;fontSize=14;strokeWidth=2;fillColor=#d5e8d4;strokeColor=#82b366;spacing=0;spacingTop=-2;fontFamily=Helvetica Neue;size=10;fontStyle=1;fontColor=#82B366;" vertex="1" parent="iUNAVm8e6Q1iuNqbtV6v-1">
                    <mxGeometry x="610" y="400" width="110" height="40" as="geometry"/>
                </mxCell>
                <mxCell id="iUNAVm8e6Q1iuNqbtV6v-28" value="functional&lt;br style=&quot;font-size: 14px&quot;&gt;connectivity" style="shape=step;perimeter=stepPerimeter;whiteSpace=wrap;html=1;fixedSize=1;spacingLeft=2;align=center;fontSize=14;strokeWidth=2;fillColor=#ffe6cc;strokeColor=#d79b00;spacing=0;spacingTop=-2;fontFamily=Helvetica Neue;size=10;fontStyle=1;fontColor=#D79B00;" vertex="1" parent="iUNAVm8e6Q1iuNqbtV6v-1">
                    <mxGeometry x="714" y="400" width="100" height="40" as="geometry"/>
                </mxCell>
                <mxCell id="iUNAVm8e6Q1iuNqbtV6v-29" value="classification&lt;br&gt;pipeline" style="shape=step;perimeter=stepPerimeter;whiteSpace=wrap;html=1;fixedSize=1;spacingLeft=16;align=left;fontSize=14;strokeWidth=2;fillColor=#f8cecc;strokeColor=#b85450;spacing=0;spacingTop=-2;fontFamily=Helvetica Neue;size=9.999999999999886;fontStyle=1;fontColor=#B85450;" vertex="1" parent="iUNAVm8e6Q1iuNqbtV6v-1">
                    <mxGeometry x="912" y="400" width="114" height="40" as="geometry"/>
                </mxCell>
                <mxCell id="iUNAVm8e6Q1iuNqbtV6v-30" value="diagnosis" style="shape=step;perimeter=stepPerimeter;whiteSpace=wrap;html=1;fixedSize=1;spacingLeft=15;align=left;fontSize=14;strokeWidth=2;fillColor=#fff2cc;strokeColor=#D6B656;spacing=0;spacingTop=-2;fontFamily=Helvetica Neue;size=10;fontColor=#D6B656;fontStyle=1" vertex="1" parent="iUNAVm8e6Q1iuNqbtV6v-1">
                    <mxGeometry x="1020" y="400" width="90" height="40" as="geometry"/>
                </mxCell>
                <mxCell id="iUNAVm8e6Q1iuNqbtV6v-32" value="TriU&lt;br&gt;Vectorization" style="shape=step;perimeter=stepPerimeter;whiteSpace=wrap;html=1;fixedSize=1;spacingLeft=2;align=center;fontSize=14;strokeWidth=2;fillColor=#ffe6cc;strokeColor=#d79b00;spacing=0;spacingTop=-2;fontFamily=Helvetica Neue;size=10;fontStyle=1;fontColor=#D79B00;" vertex="1" parent="iUNAVm8e6Q1iuNqbtV6v-1">
                    <mxGeometry x="808" y="400" width="110" height="40" as="geometry"/>
                </mxCell>
                <mxCell id="iUNAVm8e6Q1iuNqbtV6v-41" style="edgeStyle=none;html=1;fontSize=14;" edge="1" parent="iUNAVm8e6Q1iuNqbtV6v-1" source="iUNAVm8e6Q1iuNqbtV6v-33" target="iUNAVm8e6Q1iuNqbtV6v-34">
                    <mxGeometry relative="1" as="geometry"/>
                </mxCell>
                <mxCell id="iUNAVm8e6Q1iuNqbtV6v-48" value="nilearn&lt;br&gt;atlas&lt;br&gt;decounfoundinng&lt;br&gt;strategy" style="edgeLabel;html=1;align=center;verticalAlign=middle;resizable=0;points=[];fontSize=14;" vertex="1" connectable="0" parent="iUNAVm8e6Q1iuNqbtV6v-41">
                    <mxGeometry x="-0.0059" relative="1" as="geometry">
                        <mxPoint y="90" as="offset"/>
                    </mxGeometry>
                </mxCell>
                <mxCell id="iUNAVm8e6Q1iuNqbtV6v-33" value="tSNR image" style="whiteSpace=wrap;html=1;fontSize=14;" vertex="1" parent="iUNAVm8e6Q1iuNqbtV6v-1">
                    <mxGeometry x="444" y="470" width="60" height="80" as="geometry"/>
                </mxCell>
                <mxCell id="iUNAVm8e6Q1iuNqbtV6v-46" style="edgeStyle=none;html=1;fontSize=14;" edge="1" parent="iUNAVm8e6Q1iuNqbtV6v-1" source="iUNAVm8e6Q1iuNqbtV6v-34" target="iUNAVm8e6Q1iuNqbtV6v-35">
                    <mxGeometry relative="1" as="geometry"/>
                </mxCell>
                <mxCell id="iUNAVm8e6Q1iuNqbtV6v-34" value="parcellated brain" style="whiteSpace=wrap;html=1;fontSize=14;" vertex="1" parent="iUNAVm8e6Q1iuNqbtV6v-1">
                    <mxGeometry x="580" y="470" width="60" height="80" as="geometry"/>
                </mxCell>
                <mxCell id="iUNAVm8e6Q1iuNqbtV6v-45" style="edgeStyle=none;html=1;fontSize=14;" edge="1" parent="iUNAVm8e6Q1iuNqbtV6v-1" source="iUNAVm8e6Q1iuNqbtV6v-35" target="iUNAVm8e6Q1iuNqbtV6v-36">
                    <mxGeometry relative="1" as="geometry"/>
                </mxCell>
                <mxCell id="iUNAVm8e6Q1iuNqbtV6v-51" value="tangent&lt;br&gt;correlation&lt;br&gt;precision&lt;br&gt;partial correlation" style="edgeLabel;html=1;align=center;verticalAlign=middle;resizable=0;points=[];fontSize=14;" vertex="1" connectable="0" parent="iUNAVm8e6Q1iuNqbtV6v-45">
                    <mxGeometry x="-0.1268" y="-1" relative="1" as="geometry">
                        <mxPoint y="74" as="offset"/>
                    </mxGeometry>
                </mxCell>
                <mxCell id="iUNAVm8e6Q1iuNqbtV6v-35" value="network time-series" style="whiteSpace=wrap;html=1;fontSize=14;" vertex="1" parent="iUNAVm8e6Q1iuNqbtV6v-1">
                    <mxGeometry x="681" y="470" width="60" height="80" as="geometry"/>
                </mxCell>
                <mxCell id="iUNAVm8e6Q1iuNqbtV6v-44" style="edgeStyle=none;html=1;fontSize=14;" edge="1" parent="iUNAVm8e6Q1iuNqbtV6v-1" source="iUNAVm8e6Q1iuNqbtV6v-36" target="iUNAVm8e6Q1iuNqbtV6v-37">
                    <mxGeometry relative="1" as="geometry"/>
                </mxCell>
                <mxCell id="iUNAVm8e6Q1iuNqbtV6v-36" value="conectivitiy matrix" style="whiteSpace=wrap;html=1;fontSize=14;" vertex="1" parent="iUNAVm8e6Q1iuNqbtV6v-1">
                    <mxGeometry x="780" y="470" width="60" height="80" as="geometry"/>
                </mxCell>
                <mxCell id="iUNAVm8e6Q1iuNqbtV6v-43" style="edgeStyle=none;html=1;fontSize=14;" edge="1" parent="iUNAVm8e6Q1iuNqbtV6v-1" source="iUNAVm8e6Q1iuNqbtV6v-37" target="iUNAVm8e6Q1iuNqbtV6v-38">
                    <mxGeometry relative="1" as="geometry"/>
                </mxCell>
                <mxCell id="iUNAVm8e6Q1iuNqbtV6v-52" value="Linear SVM L1" style="edgeLabel;html=1;align=center;verticalAlign=middle;resizable=0;points=[];fontSize=14;" vertex="1" connectable="0" parent="iUNAVm8e6Q1iuNqbtV6v-43">
                    <mxGeometry x="-0.2877" y="-2" relative="1" as="geometry">
                        <mxPoint y="58" as="offset"/>
                    </mxGeometry>
                </mxCell>
                <mxCell id="iUNAVm8e6Q1iuNqbtV6v-37" value="X: TriU matrix" style="whiteSpace=wrap;html=1;fontSize=14;" vertex="1" parent="iUNAVm8e6Q1iuNqbtV6v-1">
                    <mxGeometry x="879" y="470" width="58" height="80" as="geometry"/>
                </mxCell>
                <mxCell id="iUNAVm8e6Q1iuNqbtV6v-42" style="edgeStyle=none;html=1;fontSize=14;" edge="1" parent="iUNAVm8e6Q1iuNqbtV6v-1" source="iUNAVm8e6Q1iuNqbtV6v-38" target="iUNAVm8e6Q1iuNqbtV6v-39">
                    <mxGeometry relative="1" as="geometry"/>
                </mxCell>
                <mxCell id="iUNAVm8e6Q1iuNqbtV6v-53" value="Permutation&lt;br&gt;Importance&lt;br&gt;SHAP" style="edgeLabel;html=1;align=center;verticalAlign=middle;resizable=0;points=[];fontSize=14;" vertex="1" connectable="0" parent="iUNAVm8e6Q1iuNqbtV6v-42">
                    <mxGeometry x="-0.2734" y="1" relative="1" as="geometry">
                        <mxPoint x="4" y="76" as="offset"/>
                    </mxGeometry>
                </mxCell>
                <mxCell id="iUNAVm8e6Q1iuNqbtV6v-38" value="y" style="whiteSpace=wrap;html=1;fontSize=14;" vertex="1" parent="iUNAVm8e6Q1iuNqbtV6v-1">
                    <mxGeometry x="982" y="470" width="60" height="80" as="geometry"/>
                </mxCell>
                <mxCell id="iUNAVm8e6Q1iuNqbtV6v-39" value="importace plot" style="whiteSpace=wrap;html=1;fontSize=14;" vertex="1" parent="iUNAVm8e6Q1iuNqbtV6v-1">
                    <mxGeometry x="1093" y="470" width="50" height="80" as="geometry"/>
                </mxCell>
                <mxCell id="iUNAVm8e6Q1iuNqbtV6v-49" value="UMAP&lt;br&gt;FastICA&lt;br&gt;PCA&lt;br&gt;mean" style="edgeLabel;html=1;align=center;verticalAlign=middle;resizable=0;points=[];fontSize=14;" vertex="1" connectable="0" parent="iUNAVm8e6Q1iuNqbtV6v-1">
                    <mxGeometry x="660" y="590" as="geometry"/>
                </mxCell>
            </root>
        </mxGraphModel>
    </diagram>
    <diagram id="budfLHFNjvNYMIdfPWzY" name="Figure 2">
        <mxGraphModel dx="720" dy="611" grid="1" gridSize="10" guides="1" tooltips="1" connect="1" arrows="1" fold="1" page="1" pageScale="1" pageWidth="850" pageHeight="1100" math="0" shadow="0">
            <root>
                <mxCell id="0"/>
                <mxCell id="1" parent="0"/>
                <mxCell id="q7tcV7XlQ2ZevTYFs-G4-12" value="" style="shape=image;verticalLabelPosition=bottom;labelBackgroundColor=default;verticalAlign=top;aspect=fixed;imageAspect=0;image=data:image/png,iVBORw0KGgoAAAANSUhEUgAAAfQAAAFXCAYAAABUXrzKAAAAOXRFWHRTb2Z0d2FyZQBNYXRwbG90bGliIHZlcnNpb24zLjUuMiwgaHR0cHM6Ly9tYXRwbG90bGliLm9yZy8qNh9FAAAACXBIWXMAAAsTAAALEwEAmpwYAACBVElEQVR4nO3dd3RU1d7G8e+ZmkkvpFBCh9BbIAFEhADSRKUISLOAqHBRr/oqXuu1IBZsgFcEAQUVOzZUUKpK7yAdEhJCei9Tz3n/GDISaQkkc2aS/VmLRTL1OclkfrP32UVSFEVBEARBEASvplE7gCAIgiAI104UdEEQBEGoAURBFwRBEIQaQBR0QRAEQagBREEXBEEQhBpAFHQPcrUTDmrDRIXacIyCIAjXokYU9IkTJxITE1PuX7t27ejfvz+vvvoqFotF7YhXtG7dOh5//PFK3++rr77ilVdecX3/9ddfExMTQ0pKSlXGu8DMmTMv+Jn/89/EiROr5LkWLFjABx984Pp+7ty5xMTEVMljV9Tu3bsZPHgwVqsVgJiYGPr06UNRUdEFt01JSSEmJoavv/660s9z8OBB7rnnHrp37058fDx33303Bw8eLHeboqIinnnmGa677jo6derE5MmTOXHixAWPtWTJEvr370/79u255ZZbWLt2bbnrH3vsMRYtWlTpjIIgeCad2gGqSps2bXj22Wdd31ssFrZv3878+fM5e/Ysb775porprmzx4sVXdb/58+cTFxfn+r5Pnz589tlnREREVFW0i5o2bRpjx451ff/uu+/y119/MW/ePNdl/v7+VfJcb7zxBv/6179c3992221cf/31VfLYFWE2m5k5cyaPP/44BoPBdfnZs2eZPXs2L774YpU8T1JSEhMmTKB9+/a89NJLSJLE4sWLGTduHCtXrqRJkyYAPPLII+zfv5//+7//w8/Pj3nz5nHHHXfwww8/EBwcDMCiRYt48803mT59Om3btuWrr77iX//6Fx9++CHdunUD4NFHH2XYsGH06dOH5s2bV8kxCIKgnhpT0P39/enUqVO5y+Lj48nIyODzzz/niSeeqPYi5wlCQ0MJDQ2t9udp2LAhDRs2LPe8BoPhgt9BdYiKiiIqKqran6fMJ598go+PDwkJCeUuDwwM5IsvvmDw4MFcd9111/w8y5Ytw2QysWDBAkwmEwDdu3cnISGBZcuW8cwzz7B7927Wr1/PwoUL6d27NwBdu3alX79+fPLJJ0ybNg2z2cyCBQu46667mDZtGgC9e/dm7NixzJ8/n6VLlwIQERHBsGHDeP3113nvvfeuOb8gCOqqEV3ul9OqVSsUReHs2bOuy7744gtuuukm2rVrR58+fXjnnXew2+2u62fOnMnkyZN59tln6dq1KyNGjMDhcBATE8Onn37KzJkziY2NJS4ujpdeeonS0lJmzZpFfHw83bt35+WXX3ad8926dSsxMTFs3bq1XK6JEye6uqQnTpzItm3b2LZtW7nbHj58mH/96190796dtm3b0rt3b1588UXMZjMACQkJnDlzhm+++cbVzX6xLvcNGzYwduxYOnfuTI8ePXjqqafIzc11XT937lwGDRrEunXrGDZsGO3atWPgwIGsXLnymn/+O3bsYOLEiXTs2JG4uDgef/xxsrOzXdcrisLcuXNJSEigXbt2JCQk8Oabb7p+H2Vd6/PmzXN9/c8u94kTJ/LMM8/w/vvv06dPH9q3b8/YsWPZt29fuSwbN25k5MiRdOjQgYEDB7Jq1SoGDBjA3LlzL5nfarWyZMkShg0bdsF1Y8aMoUmTJjz11FMX7XovU/Y7udS/sudv2rQpd999t6uYA/j6+hIVFcXp06cB+P333/H19S33ASI0NJRu3bqxceNGAPbu3UtBQQEDBgxw3UaSJAYMGMC2bdtcrx+AYcOGsX79eo4ePXrJ/IIgeIcaX9ATExMBiI6OBpznY59++ml69OjBe++9x/jx41m0aBHPPPNMuftt2bKFpKQk5s6dy7Rp09BqtQC8/vrrGAwG5s2bxy233MJHH33E8OHDyc7O5vXXX2fgwIEsXbqUn376qcIZn332Wdq0aUObNm347LPPaNu2LRkZGYwfP57S0lJmz57NwoULGTRoEMuWLeOjjz4CnEUuPDycG2644ZLd7F999RVTp06lYcOGvP322zz00EP89ttvTJo0qdwbe3p6Oi+88AKTJk1iwYIF1K1bl8cff/yi52Yravv27dx5550YjUbefvtt/vOf/7B161buuOMO13MvXLiQZcuWMX36dBYvXsztt9/OwoULXS3Gzz77DIBRo0a5vr6YVatW8dtvv/HUU08xZ84cMjIymDFjBg6HA3B+sLrvvvuIiopi7ty5jB8/nqeffrrcB72L2bp1KxkZGQwcOPCC64xGIy+//DJpaWm8+uqrl3yMstMgl/p32223ATBu3DimTJlS7r6nTp3i2LFjtGjRAoATJ07QoEED1+uxTMOGDTl16pTrNgCNGjUqd5tGjRrhcDhcHw4AOnbsSFRUFD/88MNlfw6CIHi+GtPlrihKuVZ2bm4uGzduZMWKFQwcOJDQ0FAKCwv53//+x5gxY3jyyScB6NWrF8HBwTz11FPcddddrjdOu93Of//73wveFJs1a8bzzz8PQLdu3fjyyy+x2+28+uqraLVaevXqxQ8//MDu3bsZMmRIhbI3b97cdb65rMt6z549tG7dmrffftt1Xc+ePdm8eTNbt25l6tSptGnTBoPBQGho6EW7umVZ5o033qB3797lCk6LFi24/fbb+eqrrxg/fjwAJSUlvPvuu/To0QOAJk2a0LdvXzZs2ECzZs0qdBz/NGfOHJo0acKCBQtcBahjx44MHTrU9dxbt26lXbt2jBw5EoC4uDh8fHwICgoq9/OIioq6bHe+3W7ngw8+cP2sSkpKePzxxzl06BDt2rXjnXfeoXnz5sybNw9JkgAICwvj4YcfvuwxbNmyheDgYNcHwn/q3Lkzd9xxB0uWLGHQoEH07Nnzgttc7WmQ0tJSZs6cidFoZNKkSQAUFhZedGyCn58fxcXFrtvAhWMY/Pz8AC7oTWjXrh2bN2+udD5BEDxLjSno27dvp23btuUu02q19O/fn//+97+Ac6RyaWkpCQkJ5Yp/2bnRP/74w1XQfXx8yp0jLtO5c2fX1zqdjpCQENq2besqWJIkERQU5HpTvVq9evWiV69e2O12Tp06RWJiIkeOHCEnJ8c18OlKTp06RVZW1gUfLLp06UL9+vXZunWrq6AD5Qpm2TnqkpKSq8pfWlrK3r17mTx5crkPW9HR0TRr1ow//viD8ePHEx8fz5w5cxg/fjz9+/end+/eVzU6/vwPRQCRkZGuHFarld27dzN9+nRXMQcYOHAgOt3l/wSSk5OpV6/eZW/z0EMPsW7dOp566im+++67C65XFMXVU3AxGo0GjaZ8Z1lRURH3338/Bw4cYN68edStWxdwfkg7/xjOV3a5LMsXvb7sNNA/n6tevXrs3LnzkvkEQfAONaagt23b1lW4JUnCx8eH+vXrlzsfmZeXB8DUqVMv+hgZGRmur8PCwi76xnmx1tH5z1FVylrXH3/8MSUlJURERNCpUyeMRmOFH6PseOvUqXPBdXXq1LmgpXb+cZS96V/t/O+CggJkWWbhwoUsXLjwguvLjmPKlCn4+fm5pt/Nnj2bli1b8uSTT9K9e/cKP98/fwdl+WVZJi8vD4fDQVhYWLnblH0gu5yioiJ8fHwuexsfHx9mzZrFhAkTePXVVy94fX3zzTc88cQTl7z/v/71L2bMmOH6/uzZs0ydOpWkpCTefvtt+vbt67ouICCg3BiEMsXFxQQEBADOwXpll5X1dMDfH87KblfGZDJd8wdQQRDUV2MKup+fH+3bt7/sbcre6F5//XUaN258wfUXK3zX6lKtpuLiYlcX6MW8//77LF26lP/+97/079/f9cY8atSoCj932X2ysrIuuC4zM/OS3chVwc/PD0mSuPPOOxk6dOgF15cVYI1Gw/jx4xk/fjzZ2dls2LCB9957jxkzZvDHH3+UmyZ2tcLCwtDr9RcUQlmWyw0OvJjg4OByH/QuJTY2lokTJ/LRRx9d8Drs27cvX3755SXve/7Yh6NHjzJ58mTMZjMffPCBa4pZmSZNmvD7778jy3K5lvbp06ddp0bKprclJSXRoUMH122SkpLQ6/UX/N4LCgqu+MFGEATPV+MHxZ2vY8eO6PV60tPTad++veufXq9nzpw51bIYS1mLPi0tzXVZfn7+BYPN/tkNunPnTpo3b87IkSNdhTk9PZ2jR4+W+3Dwz/udr2nTptSpU4dVq1aVu3zXrl2kpqbSpUuXqzuoCvD396dNmzacPHmy3M+6RYsWzJs3zzWSf9y4ca553GFhYYwYMYLx48dTUFDg6kG43DFWhFarpXPnzvz666/lLl+7dm25Uy8XU69ePdLT0yvUU/Hwww/TsGHDcgv9AISEhJT7GfzzX9npgfT0dO666y4APv300wuKOThPxRQXF7Np0ybXZTk5OWzfvt018r1z5874+vryyy+/uG6jKApr1qwhLi7ugg9JaWlp1K9f/4rHJwiCZ6sxLfSKCAkJYcqUKbz99tsUFRURHx9Peno6b7/9NpIk0apVqyp/zpiYGOrWrcv8+fNdXZ3nzzMuExQUxK5du9i8eTNt2rShQ4cOvPvuuyxcuJCOHTuSlJTEggULsFqtlJaWuu4XGBjIX3/9xbZt28q1xsBZCB966CGeeuopHnvsMW666SbS09N56623aNKkCcOHD6/y4z3fww8/zNSpU3nkkUe4+eabcTgcLF68mL1793L//fcDzjnUH3zwAXXq1KFz586kp6ezZMkS4uLiXAPJAgMD2b17N9u3b6dr165XlWXGjBlMmjSJBx54gFGjRnHmzBneeecdgEuekwa47rrrWLhwIcePH3eNr7iU87ver8aLL75IVlYW//3vfykqKmLPnj2u6/z9/WnevDndunUjLi6O//u//+P//u//CA4OZu7cuQQEBHD77bcDzt6Pu+++m/nz56PX6+ncuTNfffUVBw4ccM2QKKMoCrt3777qzIIgeI5aVdDBOYApPDycTz75hEWLFhEUFESPHj14+OGHLzi3WBW0Wi3vvPMOs2bN4t///jd16tThjjvu4OTJk65pRgCTJ09m//793HPPPbz88svce++95Obm8uGHH1JYWEjdunW55ZZbkCSJBQsWUFhYSEBAANOnT+fpp59m8uTJLFmy5ILnv+222/D19WXhwoVMmzaNoKAg+vXrx7///W98fX2r/HjP16tXLz744APmzZvHAw88gF6vp23btixZssQ1AK/s8q+++sr1oSchIYFHHnnE9TgPPfQQb7zxBvfcc88FvQ0VFRcXxzvvvOOahli/fn2efvrpK/4cunXrRlhYGBs2bLhiQQfnB5QJEyawbNmySuWz2WyupVnPX/Hw/Pxljzlv3jxmz57Nq6++iizLdOnShbfeeqvc+fJ//etfaLVaPv/8cxYvXkzz5s159913iY2NLfe4+/fvJzc3l0GDBlUqryAInkdSxK4XQi3w66+/Urdu3XIzIY4dO8ZNN93E//73vwtWgTvfokWL+OKLL/j5558v25r3Rv/5z3/Izc3lf//7n9pRBEG4RrXqHLpQe23atIm7776bL774gh07dvDDDz/w0EMP0bRpU3r16nXZ+44fPx6bzcaaNWvclNY9zp49yy+//MKDDz6odhRBEKqAaKELtUJpaSlvvfUWa9asISMjg6CgIHr37s0jjzxSodkNO3bs4Mknn+T777+vkpH3nuDRRx+lRYsW3HvvvWpHEQShCoiCLgiCIAg1gOhyFwRBEIQaQBR0QRAEQagBvHra2vlbaAqCIAhCbXDkyJGLXu7VBR0ufWCCUNWO93sMgOa/XXqrVMGzRc92rgaZPLOBykkE4epcriErutwFQRAEoQYQBV0QBEEQagBR0AVBEAShBhAFXRAEQRBqAFHQBUEQBKEG8PpR7oLgLmJ0u/errtHtsiyTmpqKzWarlscXag+9Xk+9evXQaCrf3hYFXRAE4RqlpqYSGBhIYGCg2lEEL1dQUEBqaioNGlT+w6fochcEQbhGNptNFHOhSgQGBl51T48o6IJQQcn3vU3yfW+rHUO4BkOWpDNkSbraMQShWogud0GoIMuxM2pHEK7R/nRxjluouURBFwRBqAapTy5x6/PVe+kutz5fdUtOTiY6OlrtGF5FFHTB47j7jbCyPD0f1Lw3d6F2ee2118jOzmb27NlXdf+ZM2cCXPT+l7vunyZOnEhcXBwzZsyodIatW7cyadIkt+43Is6hC4IgCB4lOztb7QheSRR0QRCEWiYlJYWYmBg+/vhjevXqRWxsLE888QTFxcWu2/z4448MGzaM2NhYRowYwebNm13XTZw4kZkzZ9KnTx8SEhI4fvw4MTExrFy5kr59+9K5c2eefvppduzYwbBhw+jcuTN33HEHOTk5gLOVXNZSLhMTE8PWrVuZP38+33//Pd9//z0jRowAICsri0cffZTrrruOXr168dxzz5XL+ttvvzF06FA6derEvffeS25uboV+DlarlVdeeYXBgwfTpUsXrrvuOl555ZVytzl9+jQTJkygW7dujB07lv3797uuu1Ku882bN48bbriBuLg4Ro4cybp16yqUsTJEQReESrKdzcFyIhXzodOY/0rCciQZa2Ia9qx8FJtd7XiCUGE///wz3333HT/99BPHjh3j+eefB2DDhg0888wzPPXUU2zbto0ZM2Ywbdo0jh8/7rrvli1b+OKLL1i5ciU+Pj4A/PLLL6xatYrPPvuMr776ipdeeolFixbx22+/cfbsWT755JMrZpo+fTrDhg1j2LBhfP3118iyzLRp01yP//3335OWlsYzzzwDwMmTJ3nwwQeZPn06O3bs4LbbbmPTpk0VOv4PP/yQ33//nWXLlrFr1y7mzZvHsmXLyn14WbduHQ899BB//vknN9xwA1OmTKGwsPCKuc63ZcsWPvnkEz7//HO2bdvG6NGj+e9//4vD4ahQzooSBV0QrkCxO7CdyQKNBIAtKR1HZj5yfjFyQQmO3CLsablYj6dSuvMY5sPJOApKVE4tXMy4jn6M6+indgyPMXPmTEJDQ4mIiODBBx9k1apVWK1WPv74Y26//Xbi4+PRarX07duXPn36sGLFCtd9e/XqRXh4eLn599OmTcNkMtGyZUvCw8O55ZZbiIyMJDQ0lE6dOnHmTOVnihw4cICDBw/y3HPP4e/vT0hICP/3f//HDz/8QG5uLqtWraJDhw4MGTIEnU5H//796du3b4Uee/To0SxZsoQ6deqQnZ2NxWLBz8+P9PS/pzbedtttdO3aFb1ez3333YfBYGD9+vVXzHU+g8FAQUEBX3zxBQcPHuS2225j3bp1aLXaSv88LkcMihOES1BkGXtarrOYO2TnhXot2iB/NP4+aIx60GhQ7A4UsxVHQQlyQTFyXhGWvCI0wf4YGkei8TGoeyCCyyuDQ9SO4FEaN27s+rpevXpYrVby8vJISUlh69at5Qq4w+Gge/furu8jIiIueLzg4GDX11qttlyx12g0KIpS6YwpKSk4HA769OlT7nKDwUBycjLp6elERUWVu65hw4YV6nYvLS3lxRdfZPv27URERNC6dWtkWUaWZddtzl+xTZIk6tatS3p6Olqt9rK5ztelSxfefvttPvnkExYtWoTJZGLChAncf//9V7XE66WIgi4IF+HIL8Z68iyKxTlvWRPoi75eGJogPyRJuuh99PVBsdmxpeViT8tBzivCvK8EQ5ModOFB7owvCBWSnp5O06ZNAWfh9PX1JSQkhKioKG699VamTp3qum1qaqqrax246N/Bpf42/kmj0WCxWFzfl51bv5ioqCh8fHzYunWrq0VrtVpJTk6mUaNGREZGsnHjxnL3SUtLw2g0XjHH008/TWBgIBs3bsRoNCLLMt26dSt3m4yMDNfXZWv2N2jQgIiIiMvm2rlzp+t+qampRERE8MEHH2C1Wvn999958MEHadu27QUfCK6F6HIXhPMosoI1KQPLodMoFhuSyYixVTTG1g2RdFqUYvNl7y/pdRiiwzF1bIo2NABkGeuJVKxJ6VfVOhGq1r40K/vSrGrH8Bhz5syhqKiI9PR03nnnHUaMGIFer2fUqFF89NFHrgFg+/fvZ8SIEfzwww9V8rzNmjVj8+bNJCcnYzabmT9/frkPAwaDgcLCQgA6dOhAdHQ0s2fPpqSkhNLSUmbNmsWdd96Jw+Hglltu4ciRI3zxxRfY7XY2bdrEmjVrKpSjoKAAo9GIRqOhqKiIV199laKionJLr37++efs27cPq9XK3LlzMRgM3HDDDVfMdb79+/czZcoUDh8+jMFgcPVuhIRUbY+RaKELwjmy1Yb1SAryuaKtb1AHXf06rjea0gOJAPh2b33Fx5IMegwt6mPPyMOWmIb9bA6K1Y6hWT0kTcVaMULVG7rU2dqqrl3XvE10dDQ33XQTpaWl3Hzzzfzf//0fAEOGDKG4uJgnnniC1NRUgoODufPOO5k4cWKVPO+YMWPYv38/o0aNwmAwcMcdd1CvXj3X9YMHD+bhhx8mISGBtWvX8v777zN79mwGDBiAxWKhQ4cOLFmyBKPRSHR0NO+99x6zZ8/mxRdfpG3btgwYMKBCOZ5++mmeeeYZ4uLi8PPzo0+fPvTq1YujR4+6bjNw4ECeeeYZTp8+Tfv27V1d5sBlc51v4MCBJCYmcv/995Obm0tYWBj/+c9/6NixYxX8NP8mKV7cbIiJiXHrpH3BPdRYuEUuMWM5nIxitSMZ9Ria10Mb4FvuNiVbDgEVK+jnc+QXYzmaAg4ZbWgAhhb1K9w1ebXEwjIXFz07Baj6gn7q1CmaNGlSpY9ZnVJSUujXrx+//fbbVe3qJVSvy72eLlf3RJe7UOs58oowH0xCsdrRBJjwadf4gmJ+LbRBfhhbNQStBkdOIbZTaaL7XRCEKicKulCrOXILsRw513oOC3SeK9dX/ZkobYAJY0w0SBL2jDzsaZceBCQIgnA1xDl0oday5xZiPZoCCuiiQtA3iqzWrnBtoC+GFvWwHj2DLSkDjZ8JbWDV9QQIQkU1aNBAnK6sgdxa0IuKinjooYcoLCykX79+5aZEvPDCCxw4cACDwUDPnj25//773RlNqGUcuUVuLeZldKGByHXN2M9mYzmWgql9EySDvtqfVxCEms+tBX3lypXceOONjB49mrvuuosxY8YQFOScn5uYmMjy5cvR68Wbm1C9HIUlWI6VFfNQ9I0i3FLMy+gbhiMXlyIXlGA5dgZjm0ZufX5BEGomtxb0CRMm4HA4sFqtlJSUoNP9/fQpKSlMmzYNh8PBs88+S6NGjdwZTagl5BILlsPJICtoI4IrVcx92jWukgySJGFsXh/z/lPIhaXY03LQ1w2rkscWLu/HOy9c3UwQagq3D4orLi5m6NChhIWFuebqWa1Whg8fzvz583nkkUd48cUX3R1LqAVkiw3L4dPOAXAh/hiaRFWqZazxN6HxN1VJFsmgw9DUuVylLTkT2SwWO3GHDlEGOkSJpXiFmsntBT0wMJA1a9bQqlUrvvnmGwB0Oh0TJ07EYDDQtm3byy4DKAhXQ3HIWI4ku6amuWMu+JVoQwLQ1gkEWcF64qyYyiYIwjVxa0FfvHgxGzZsAHCttAOQmZnJ5MmTURSFEydOEB4e7s5YQg2nKArWE6koJRYkHz3Glg2QrmJDBMvJs1hOnq3SbIZGkaDXIheWYE/Pq9LHFi70+E+5PP5TxfbKFgRv49Zz6EOHDuWxxx5j0aJFREREMGbMGJYvX86ECRNISEhgzJgxGI1GXnjhBXfGEmo4W3ImjpxC0GowxkRf9TxzR0ae84umdassm6TXYWgchfXYGWzJGejCAqplHrzg9MneYsA9u64NWZp+5RtVoVV3Rrr1+QTP49YWemRkJB9++CHLli1jzpw5xMXFMWHCBACmTp3K559/zrJly8pt6ScI18KeU4A9NRsAY8sGaExX3oHJ3bShAWiC/MAhY0vJUjuOIPD111+TkJCgdoxKS0lJISYmhpSUlEpd909bt24lJibmqnNMnDiRuXPnXvX9r5ZYKU6oseRSC9YTzi5yfaMItEF+Kie6OEmSnF3vgD09F7nk8ju6CYIgXIwo6EKNpDhkLEfPuDZE0UWFqh3psjS+RnSRzm5ga1KGGCAnVLtjx44xdepU4uPj6d27N8899xxFRUWu6+12O7Nnz6Znz57079+fxYsXu16Xx48fZ/z48XTt2pW+ffvyxBNPUFJSAjhnLb399tv069eP+Ph4pk6dSnJysutxY2JiePHFF4mPj+df//oXCQkJfPnll67rbTYbPXr0YO3atQD8+OOPDBs2jNjYWEaMGMHmzZtdty0qKuLxxx8nNjaW66+/nm+//bbCx79r1y4mTZpEr1696NChA2PGjOHAgQPlbvP+++9zww030Lt3b15//fVy26peLtf5LvezqmqioAs1jqIoWE+eRSm1IPkYMDSrq/qI9orQN6gDWg1yfjFyXtGV7yAIVykvL48JEybQokULNmzYwFdffcWpU6d47LHHXLdJT0/HYDCwfv163nzzTRYsWMD3338PwHPPPUdcXBzbtm3jq6++4sCBA3z33XcAvPnmm6xdu5alS5eyceNGOnTowF133YXFYnE9dkpKChs2bGDWrFmMGDGClStXuq7bsGEDWq2W3r17s2HDBp555hmeeuoptm3bxowZM5g2bRrHjx8H4Pnnn+fMmTOsWbOG7777jp07d1bo+M1mM/fffz+DBw9m48aNbNmyhXr16vHyyy+Xu93x48f56aefWLZsGb/88guLFi1yZbxcrvNd7mdV1URBF2oce3oujuwC0EgYYxogabVqR6oQSa9zFnXAmpwpWulCtfn111/R6/U88sgj+Pj4EB4eztNPP81vv/1GZmYmAGFhYTz44IMYDAbat2/P6NGjXYXXaDSyefNm1qxZg0aj4dtvv2Xs2LEoisKKFSt45JFHiI6Oxmg0Mn36dMxms2uGEzj3W/fx8SEwMJCRI0eya9cuVyv+m2++Yfjw4eh0Oj7++GNuv/124uPj0Wq19O3blz59+rBixQqsVis//fQT06dPJzQ0lJCQkHIfSC5Hr9fz2WefMXbsWOx2O2fPniU4OJi0tDTXbTQaDc888wy+vr40atSIyZMnu47/crn+6VI/q+oghtMKNYpcVIotyTm62NC0XpUOgpP8fKrssS5FFxmCPTUHpcSCI6cQXVhgtT9nbdI+UiwtDZCdnU29evXQnDd9s2xf9DNnzgBQr149tOd9GK5Xr56rG/zNN9/knXfeYc6cOSQnJxMbG8uzzz5LaGgoJSUlPPTQQ+Ue22azlRuMFhHx94p9devWpWfPnnz77beMGzeODRs2uApzSkoKW7duLVcoHQ4H3bt3Jzc3F6vVSmTk36P7o6OjK3T8Wq2Wbdu2ce+991JcXEzTpk3R6/XlPkQHBwfj7+9f7vjT09OvmOufLvWzatGiRYWyVoYo6EKNoThkLMdTnWu0R4agq1O1xdDUvkmVPt7FSBoNuvph2BLTsaVkoQ0N8IrTBd5i1V1iahdA/fr1SU1NxeFwuIr26dOnAQgPD+fkyZNkZGSUu09KSgoNGjRAlmUOHTrEgw8+yFNPPUVqaiovv/wyM2fO5IsvvsBoNLJ48WI6derkuu/JkyfLFd5/vqZvu+023njjDYKDg+ncubNr6e+oqChuvfXWcht5paam4uPjg7+/P0ajkZSUFJo2bQpQroV9Ofv27eP5559nxYoVtGvXDnCuk3Lq1CnXbQoLCyktLXWtmVJ2/FfKdb7L/ay++uqrCmWtDNHlLtQY1sQ0FLMVyWRE38h71+zWRQQjGXQopRbnqQNBqGI33HADAG+88QZms5nMzExeeuklunfvTv369QHnOfT33nsPq9XK7t27+fzzz7n99tvRaDS8+OKLvPXWW1gsFsLCwvDx8SEkJASNRsPw4cOZM2cOaWlpyLLMN998w0033URSUtIl8yQkJFBYWMjixYsZNWqU6/JRo0bx0UcfsX//fgD279/PiBEj+OGHHzAYDNx66628/fbbpKenU1hYyGuvvVah48/Pz0ej0bgK8J49e/joo4+wWv9egtlms/HKK69QUlLCiRMnWLRoEbfffvsVc53vcj+r6iBa6EKNYM8qwJGZD5KEsUX9q1oJzlNIGg36BnWwnkxzttLDAkUr3Qt58kIvAQEBLFmyhNmzZ7uKe//+/cudg27Tpg1JSUnEx8cTHh7OzJkz6dOnDwBvvfUWL7zwAr169UKWZbp16+ZaEOyJJ55g7ty5jBs3jtzcXBo2bMg777xDmzZtLplHr9dz66238vnnnzNw4EDX5UOGDKG4uJgnnniC1NRUgoODufPOO5k4cSIATz75JC+//DI33XQTOp2OSZMmsW7duisef69evRg3bhzjx49HlmWio6MZP348b775JllZzrUg6tSpg7+/PzfccAN+fn6MGzfOVdCvlOt8l/tZVTVJ8eKRNzExMRw5ckTtGEIVS31ySaVuL5utmPefAoeMvnEU+qjq+fRbsuUQAL7dW1fL459PkRXMe0+gWGwYmtdDVyeoUvev99Jd1ZTMu0XPdp7HTZ7ZoEof99SpUzRpUv2nZITa4XKvp8vVPe9txggCf6/TXraDmi4yWO1IVULSSOjrObdUtaVmixHvgiBckSjoglezp2YjF5Y610Rv6h3zzStKGx4Eei1KiQU5v1jtOIIgeDhR0AWvJZeYsaU458wamtWtcZuaSBoN+rp/t9IFQRAuRxR0wSspsvL3FLWIYLTB/le+kxfSRQQ7V48rKMFRWKp2HEEQPJgo6IJXsp3Jcu5vbtR79RS1K5F0Wtca7/ZUsRObIAiXJgq64HXkolLsZ5zFzdCsrtcs7Xq19FGhIEk4couQzdYr30FQhSzLakcQaoBreR3VrJOOQo2nyDKWE6kA6KJC0Aa6b0tUQ5Motz3X+SSDDm2dQByZ+djTcjA0VidHTTB7UHC1PG5wcDAZGRlERkbWqIGZgnspikJGRgbBwcFXdX9R0AWvYjuThVJqRfIxoI92b1d7Wde3GvRRoc6CnpmPvkE4kq5m90pUl/GdqmesRdnGHqdOnRIFXbhqiqJgMplEQRdqPrnEjP3caG9D07pI2tpzxkjj54MmwBe5sMRZ1Ot69v7utY0kSdStW1ftGEItV3veEQWv5tzjPO3vUe2Bvm7PYE/PxZ6e6/bnLaOre25wXHqOWGjmKn28p4iP94i95oWaSbTQBa9gT89FLnIuIKNvqM6odusp505OanW9a0MCkAx6FLMNOa8IbUiAKjm82cyf84Dq63oXBDWJFrrg8WSLDdtp5wIy+iZRtfb8sSRJ6M6tU29LU6+nQBAEzyQKuuDRFEVxtoxlGW1oALrQ2t0q1UUEgyQh5xeLKWyCIJQjCrrg0Rw5hch5RaDVoG/sudtRuouk06INCwTAnpGnbhhBEDyKKOiCx1IcMrakdAD00RFoDHqVE3mGsh3l7Bl5KLIYHCcIgpMo6ILHsp3JQrHakfx8asy2qFVB429CMhnB7sCRU6h2HEEQPIQo6IJHkkut2M/mAGBoLFbfOp8kSee10sXgOEEQnNw6ba2oqIiHHnqIwsJC+vXrx9SpU13XrVy5kuXLlxMQEMDs2bOJjBTnS2srRVGwJqaBoqAND0Ib4P455xfj27212hFcdHWCsJ3OQC4oQS61oDEZ1Y7kFZJnNlA7giBUG7e20FeuXMmNN97IZ599xubNm8nPzwfAarXy6aefsmLFCqZPn857773nzliCh3HkFiHnF4NWg0GlOeeertzguPQ8dcMIguAR3FrQJ0yYwMiRI7FarZSUlKDTOTsITp48ScuWLdHpdMTGxnLgwAF3xhI8iGy2YkssGwgXjqQXax9dimtb1ax8FLHTlyDUem4/h15cXMzQoUMJCwvDaHR2ExYVFeHn59w1S5IksQ1hLZb3xUYUqw3J16jqZigXU7r/FKX7T6kdw0Xrb0Ly83EOjssWg+MqYsiSdIYsSVc7hiBUC7cX9MDAQNasWUOrVq345ptvAPDz86OkpARwnj8ta7kLtYs9u4DcFesBzxwIpxSbUYrNascoRx8RDIjBcRW1P93G/nSb2jEEoVq4taAvXryYDRs2AGAymVyXN23alMOHD2Oz2di5cycxMTHujCV4iJwPV6OYrWhD/N26z7k309YJBI2EXFiKXGpRO44gCCpya0EfOnQoixcvZuLEiRw+fJhGjRqxfPlyjEYjY8eOZdy4cbz++uvce++97owleADLqTQKftruXBFODISrMEl73uC4zHyV0wiCoCa39m1HRkby4YcflrssLi4OgBEjRjBixAh3xhE8SPaCH0FWCLq1h9h4pJJ04cE4MvNxZOajRId73KkKQRDcQywsI6iuZMdRSrYfQePnQ+ikAWrH8TqaABOSjx7FZkfOK1Y7jiAIKhEFXVCV4pDJeu8HAELGJaANEufOK0uSJHThwQDYM/NUzSIIgnrEcHJBVYVrdmI9lYYuMoSgEdepHeeytOdGlHsibXgQtuRMHLmFKDa72nE81riO4gOjUHOJgi6oRrHayflwDQBhdw30+N3UjE3rqh3hkjQGPZpgP+S8YuxZBWrH8VivDPastQ0EoSqJLndBNQU/bcOekYehcST+CZ3UjuP1zu92VxSxraog1DaioAuqkC02cj7+DYDQO29E0nr+S1EuKkUuKlU7xiVpQ/xBp0UpsWA5dkbtOB5pX5qVfWlWtWMIQrXw/HdRoUbK/24zjuxCjM3r4derndpxKsR8IBHzgUS1Y1ySpNGgq+Ock17403aV03imoUszGLo0Q+0YglAtREEX3E4utZD76ToAQu8eKOZNV6GybvfCdXtQrGJwnCDUJqKgC26X980fyPnFGFs3xDeuldpxahSNnw+SrxG5sJTirYfUjiMIghuJgi64laOolLzPnOv5h4nWebXQhQcBULh6l8pJBEFwJ1HQBbfK+2oTclEppo5NMXVurnacGkkXFgQaieKth3Dki5XjBKG2EAVdcBu5xEz+N38A50a2i9Z5tZAMOny7tgSHTOG6PWrHEQTBTURBF9wm/4etyIWl+LRrjKlDU7Xj1GgBA2IB0e0uCLWJWClOcAvZaiPvi42Ac812b+TTrrHaESrM77q2aPx8sBxJxpqUjqFRpNqRPMKPd4qteYWaS7TQBbco/GUHjpxCDM3r4RsXo3acq6LxN6HxN6kdo0I0Rj3+vdsDULhGtNLLdIgy0CHKoHYMQagWoqAL1U5xOMhdsR6A0HEJ4ty5mwTc2BWAwl93ociyymkEQahuoqAL1a5o7V7sabnoG9TxmlXhLsZy8iyWk2fVjlFhPu0aoasbij0zn9K9J9WO4xEe/ymXx3/KVTuGIFQLUdCFaqXIsmtVuJDb+3rFmu2X4sjIw5GRp3aMCpM0GgL6dwGgcPVOldN4hk/2FvPJXjGVT6iZvPfdVfAKxX/+hTUpHV1EMAH9Oqsdp9YJGOAs6EUb9yOXik1JBKEmEwVdqFZlq8IF39YbSS8mVbiboX4dfNo2QjFbKf79gNpxBEGoRqKgC9XGfOg05r+S0PibCBzcTe04tVbZnPSCNaLbXRBqMlHQhWqT9+UmAAKHxqMxGVVOU3v59+kAei2lu45jz8xXO44gCNVEFHShWtjScynauB80GoJu7al2nFpNG+CLX482oCgU/rZb7TjCP2zdupWYGPetzfDNN98wYMAAOnXqxIgRI9i9+9KviezsbKZNm0bXrl2Jj4/npZdewm6/cFveDz74gIkTJ5a7LC8vj5iYGDp37uz6l5DgnYtKeQtR0IVqkf/tZpBl/Hu3Rx8RrHacKiH5+SD5+agd46oEupaC3YmiKCqnUU/7SD3tI/Vqx1DNtm3beP7553n55ZfZvn07N998M/fffz+lpaUXvf2///1vTCYTGzdu5Msvv2Tz5s0sXbrUdX1eXh7PPfccr7766gX33b9/P1FRUezevdv1b+3atdV1aAKioAvVQC61UPDjVgCCR12vcpqqY2rfBFP7JmrHuCq+cTFogvywJqVjOXZG7TiqWXVXJKvuuvQyuCkpKcTExPDxxx/Tq1cvYmNjeeKJJyguvvxUty+++IK+ffuW+7C0dOlSRowYAcCuXbuYNGkSvXr1okOHDowZM4YDBy4cpFj2/CkpKa7L5s6dW671++effzJq1Ci6du3KTTfdxI8//ui6bsqUKeVaxGX/pkyZAsDnn3/OTTfdRNeuXdHr9dx5552EhISwatWqC7IkJSWxdetWHnvsMXx9fYmOjmbatGl8/PHHrtuMHj2awsJCbr/99gvuf+DAAdq18951J7yRKOhClSv4ZSdyUSk+bRrh07qh2nEEQNJpCUjoBIg56RXx888/89133/HTTz9x7Ngxnn/++cvefujQoeTn57N161bXZd988w0jR47EbDZz//33M3jwYDZu3MiWLVuoV68eL7/8cqVzHT58mPvuu48pU6awdetWnn/+eV544QX++MO5i+GiRYvKtYjL/i1atAiA48eP07Jly3KP2bx5cw4fPnzBcx07dozg4GAiI//+ANSsWTNSU1MpKCgAYNmyZcyZM4ewsLAL7n/gwAEyMjIYNmwYPXr0YMqUKRw/frzSxyxUnCjoQpVSZJn8r38HalbrvCYIuNHZ7V60bg+K3aFyGs82c+ZMQkNDiYiI4MEHH2TVqlVYrZeex+/r68uQIUNYuXIl4Cy8iYmJDBs2DL1ez2effcbYsWOx2+2cPXuW4OBg0tLSKp3rs88+o1+/fgwaNAitVkuXLl0YNWoUy5Ytq9D9i4uLMZnK70fg4+NDSUlJhW5b9n3Z7c8v9v8UEBBAly5d+PDDD1mzZg1NmzblrrvuorCwsEJZhcpz68TgoqIi/v3vf2M2mwkJCWHOnDno9c7zWS+88AIHDhzAYDDQs2dP7r//fndGE6pIyZbD2M5koYsMwa9XW7XjVKmSLYcA8O3eWuUkV8fYoj6GRpFYk9Ip2X7EOVCulome7ezKTp7Z4LK3a9y4sevrevXqYbVa6dixIz4+Fx9DMX/+fG677TbuvPNOnnnmGb7++mtuvPFGAgMDAee563vvvZfi4mKaNm2KXq+/qrEMKSkpbNmyha5du7ouczgcNGzo7Am799572bnzwh6Y2NhYFixYgMlkwmw2l7vObDYTGhp6wX18fX0vOLde9r2/v/8Vs86ePbvc9zNnzuSLL75gx44d9O3b94r3FyrPrQV9xYoVDBo0iJEjR/L222/z66+/MnjwYAASExNZvny5q8AL3invG2frPOjWnkharcpphPNJkkTAgC5kL/qJgtU7a2VBr6j09HSaNm0KOIuor68v27Ztu+L7U4MGDVizZg0//vgjb7zxBgD79u3j+eefZ8WKFa5zyosXL+bUqVMX3F977m/GZrO5LsvN/Xvt+aioKIYPH17uFEBGRobrw8GCBQsum69FixYcO3as3GXHjx+nd+/eF71tXl4eWVlZ1KlTB4ATJ04QFRV1xYJusVh45513GDNmjOvDhsPhQJblS34oEq6dW7vcx44dy7BhwwDnL/f8P46UlBSmTZvG3XffTVJSkjtjCVXEmpxB6a7jSEa9WEjGQwX07wKSRPHmv3AUXtjNKjjNmTOHoqIi0tPTeeeddxgxYkSFGhujRo3i7bffxs/Pj7i4OADy8/PRaDSuQrZnzx4++uiji3bhh4WFERQUxMqVK7FarRw8eJCff/7Zdf2IESP44Ycf+OOPP5BlmcTERCZMmMDixYsrdFyjRo3i+++/Z8uWLdhsNpYuXUp2djYDBgy44LaNGzcmNjaWWbNmUVRURHJyMu+++y6jRo264vMYjUa2bdvGyy+/TEFBAcXFxbzwwgvUr1+/XO+CULXcWtD9/f0xGAzs3buXbdu20adPHwCsVivDhw9n/vz5PPLII7z44ovujCVUkfzvtwDg37cT2gBfldMIF6MLD8LUpTnYHBSt36d2HI8VHR3NTTfdxM0330yXLl14/PHHK3S/W265hczMTEaOHOnaJrhXr16MGzeO8ePH061bN55//nnGjx9PTk4OWVlZ5e5vMBh44YUX+PXXX4mPj2f27NmMHj3adX3nzp157bXXmDNnDt26dWPChAkkJCTwyCOPVChfjx49ePbZZ3nuueeIi4vjxx9/ZOHChQQHBwPwzDPPuEbEA7zzzjvY7Xb69evH6NGjuf7665k2bVqFnmvu3Lno9XoGDBjA9ddfT2ZmJgsXLhS9sNVIUtw8KXXnzp3MmjWLd9991zWgQpZlSktL8fPzA2DkyJF89dVXV3ysmJgYjhw5Uq15hYqRzVYSx7yEXFRKg3dn4BMTfdWPlfrkkipMVnW86Rx6vZfuuuR1hWt2kT57BT5tGtFg7nQ3plLflc6hp6Sk0K9fP3777TcaNLj8eXZBUMPl6p5bW+inTp1i1qxZvPfee+VGR2ZmZjJ58mQUReHEiROEh4e7M5ZQBYrW70UuKsUYE31NxVyofn692iGZDJj/SsKakql2HEEQqohbB8W9//77FBYW8vDDDwMQHx9PcHCwq9tozJgxGI1GXnjhBXfGEqpA/nfO7vagm7urnES4Eo3JgH/vDhT+soPCNbsIu2ug2pEEQagCbi3ol1tIYerUqUydOtWNaYSqYj6aguVIMhp/E/59Oqodp9oYmkSpHaHKBAzo4irooXcMQNLUjiUpZg8Kvuz1DRo0EKfxBK8lNqgWrlnBd5sBCBgYi8bHoHKa6qOLDFE7QpUxdWyKLiIYe3ou5v2nMHVspnYktxjf6crzpwXBW9WOj+VCtXEUllC4dg8AQcNEd7u3kDQaAgZ0AaBg9S6V0wiCUBVEQReuSeHqXSgWG6YuzTFER6gdp1rZ03Oxp+de+YZeoqygF23ch2y+9LKmNcnHe4r4eE+R2jEEoVqIgi5cNUVRyP/h3GC4YT1UTlP9rKfSsJ6q/PrbnsoQHYGxdUOUEgvFfxxUO45bzPw5j5k/56kdQxCqhSjowlUz/3Ua2+kMtCH++PUUy4h6o8BzG7YUrhE7sAmCtxMFXbhqhT9tAyBgQCySTqzb7o38+3QEnZaSncewZ+WrHUcQhGsgCrpwVeQSM4Xr9gKIddu9mDbQF78erUFWKPxtt9pxBEG4BqKgC1elaP0+FLMVn3aNMTSs2YPhajpXt/vqnVe1pacgCJ6hwgV96dKl5OTkVGcWwYsU/LQdEK3zmsC3WwyaID+sielYj6eqHUcQhKtU4YL+9ttv07t3b+6//35+/fVX7HZ7deYSPJg1KR3zX0lIvkb8b+igdhzhGkl6HQEJnQAoWC0GxwmCt6pwQf/zzz958cUXKS0tZcaMGVx//fW89NJLHDp0qDrzCR6orHUe0LcjGpNR5TTu49u9tVfstHY1As51uxet3Y1id6icpvokz2xwyZ3WBMHbVbigm0wmbr31VpYuXcpvv/3GpEmT2Lp1KyNGjODWW2/lo48+Ii8vrxqjCp5AsdldU5wCB8epnEaoKsYW9TE0isSRV0zJdrGWuSB4o6saFFevXj2mTJnCv//9b+Li4jh8+DCzZs2id+/ePPvssxQViZWYaqriLYdw5BVjaByJsZXYJrWmkCTpvKVgRbe7IHijShf0HTt28Mwzz9CrVy+mT5+OLMvMnj2bbdu28fLLL/PLL7+4tkcVap7zB8NJkqRyGvcq3X+K0v2n1I5RbQL6dwZJonjzXzgKS9SOUy2GLElnyJJ0tWMIQrWo8G5rb731Ft9//z2pqalERUVx++23M3LkSKKj/26lDR06lBMnTrBkyZJqCSuoy55T6OyO1WoI6N9F7ThupxSb1Y5QrXThwZi6NKd05zGK1u+rkZvt7E+3Veh2xVaZjGKZrGIH+WaZArNMiU2h1KZgl8GhKGglCa0GjDoJP71EgFFDiElDuJ+GSH8tvgYxK1hwrwoX9MWLF5OQkMBzzz1Hr169Ltk6a9u2LQ888ECVBRQ8R9G6vSAr+PVsjTZYbENZEwUOiKV05zEKV++skQX9fPlmmSOZNo5n2ziRYycx187pPAepBXYKLNc+Hz/YR0N0sJbGITpahOlpWUdHmwg9jUJ0aGpZ75bgHhUu6CtWrKB58+YYDBfud22xWDh48CBdunShX79+VRpQ8ByFvzrPrdbG1nlt4derHZLJgPmvJKzJmRiiw9WOVCVySx3sSf17R7nu757lTMGlR/Prtc6CHOSjIcAg4WvQYNJJGLSg1UhoJFAAh6xgdYDZrlBslSm0KOSbZXJLZfLMMnlpMvvTbECp67H9DRId6xroUt9AtwZGutY3EGAUrXnh2lW4oI8cOZLPPvuMDh0unHe8b98+pkyZwt69e6s0nOA5rEnpWI6eQePnU2OnbgmgMRnwv6EjhT9vp+Dn7dS5Z4jakSpNURRO5zvYetrCthQLO1KsnMgpv27GmQIHei00CNTSIEhH/UAtUQFaovy11PFzFvFrGSOiKAr5ZoX0IgdnCx2cKXBwOt9OYq6D3FKZP5Is/JFkAQrRStC5noFejY0kNPOhQ5QBrUa04IXKu2xBf+WVV1xT0RRF4d133yUkJOSC2x06dIiAgIBqCSh4hrJ1vv17t0dj1KucRqhOgYO7UfjzdgpX7yTs7oFIWs/feCez2MHviRY2JZr5M8lyQetbr4WmITqOZDkL+xtDgqkXoEVTTYVTkiSCTRLBJg0x4eX/XnJLZY5l2ziaaedQprO7f8cZKzvOWHnrj0LCfDX0a+bDwJYmejfxwUcnirtQMZct6C1atGDevHmA8wV64MCBC7rctVotgYGBPP/889WXUlCVIssU/nquoIvu9hrPp20j9NHh2JIzKdl6GL+ebdWOdAG7rLAjxcr6k2bWnzRzMKP8YDc/g0TrcD1tIvS0CtfROFiHTisx+tMsABoEVbhzssqFmDTENTAS18C5KFOJTeavDBt7z9rYnWolo1jm8/0lfL6/hACDxI0tTNzS1pfrGxvRiZa7cBmXfVWPGDGCESNGAJCQkMD8+fNp3Vp0t9Y25gNJ2NNz0UUEY+rQRO04qtFGBKsdwS0kSSJwcDey319FwU87PKagF1pk1p00s+ZYKetOmMk/b+CaQQttIvR0iDLQLlJPw2DtRQee9WvmeSsb+uo1dK1vpGt9I4qikFLgYFuyla3JFhLzHHx1sISvDpYQ7qfh1ja+jO7gR6tw0UsmXKjCH1PXrl1bnTkED1b46y4A/Pt1RtLU3sE7xqZ11Y7gNgEDYsn+4GeKtxzCnlOILlSdU2o5JQ5WHzOz6kgpfySZsZ7Xk143QEuXeno61zXQKkKPQXvl1uu9cZ59alCSJKKDdEQH6RjZzpezhQ7+SLLwe6KF1EIHC7cXsXB7EV3qGRjXyY+bW/ti0otWu+B02YI+adIknn32WZo1a8akSZMu+0CSJPHhhx9WaThBfbLVRtGGfcC5hUeEWkEXGoBf99YU/3GQwtU7CRnbx23PnW+W+floKd8dKuGPRAuOcw1xCWgdrqNrfQNdGxipG+D55/avVd0ALaPa+TKyrYkTOXbWnbTwe5KFXalWdqVaeWFtHmM6+HFnF3+ig9U7jSB4hsu+As7fG/lK+ySLfZRrppKth5GLSjE0r4excZTacVQlFzmnHmn8TSoncY/AQd0o/uMgBT9tI3jMDdW6MqDFrrD2hJmvDxaz9sTfLXGtBB2j9MRHG+nWwECQz7X1EJ08N9q9aah3FT9Jkmgepqd5mJ6Jnf3YctrCL8fMnMix8/62IhZtL2JQSxNT4/yJre95pxUE97jsq3rZsmUX/VqoPcoGw4m552A+kAhQa6bt+cbHoA0LwJaShflAIqb2VT9+4kCalRX7ivn2r1LyzDIAGgnaReq5rpGRuAZVO0d75i95AHx+e50qe0x389FJ9GnqQ5+mPhzPtvHTUTObT1tYdaSUVUdKiWtgYHqPAPo29al1yzPXdpX+mFpSUoKvry8Av/zyC2fPnqVv3740atSoysMJ6nIUlFC85RBoJAL6dlQ7juBmklZLwI1dyft0HQU/b6+ygl5kkVn5Vwkf7ynmwHlLsTYK1nJDEx96NjQQ6lvzu9OrQvMwPTN66Bnf0Zefj5lZc8zMthQr277Ipl2kngevC2RgC1HYa4sKf/RNTExk4MCBvP/++4BzbfcHH3yQ2bNnc/PNN7Nzp9ihqaYp2rAP7A5MnZujqxOkdhxBBYGDugJQtH4fcsm1rWV/LMvGU6tz6Tr/LE/8kseBdBv+BonBLX14dVAwrw0O4aZWJlHMr0Kor5ZxHf1495YQJnTyJdhH4kC6jXu+zmbI0gx+PV4qTovWAhUu6K+99hoajYZ+/fphs9n45JNPGDJkCDt27OD666/nrbfeuuJjFBUVcc899zBx4kQeeOABbLa/P52vXLmSUaNGcdddd5GeLnZD8gRlo9vLttUUah9Dg3B82jdBMVspXFf5lSAVRWHdSTPjP8skYVE6H+4qptiq0DpcxwM9/Hnv1lDuivWncYh3ndP2VCa9hptb+zLv5lDuivUjxKThQLqNu77MZsTyTLYlW9SOKFSjChf07du38/DDD9O+fXt27NhBYWEhY8aMwd/fn7Fjx3LgwIErPsaKFSsYNGgQy5Yto1mzZvz6668AWK1WPv30U1asWMH06dN57733rv6IhCphO5uD+UAiko8e/17t1I4jqChwcDfg761zK8LmUPhyfzEDFqcz6fMsNp6yYNRC/+Y+vD44mP/2D6ZXY58KTTUTKs+glRjc0sTcm0KY1NmPAKPEjjNWRn6cyeSvsjiZU7Fd5wTvUuGPxTabjaAgZ7frxo0bMZlMxMbGAuBwONDprvxQY8eOda0053A40OudiyOcPHmSli1botPpiI2N5ZVXXqn0gQhVq2ypV7/r2qIxiVGztZl/7w5kzvsWy6HTWBPTMTSOvORtLXaFz/YV878thaScW341xKRhcEsf+jfzwV9sQuJWBp3ETa1M9Gtm5PvDpXx/qJTVx8ysPWHmrlh/HroukMBrnDkgeI4K/yZjYmJYvXo1mZmZrFq1il69eqHT6bDZbHz88ce0bNnyio/h7++PwWBg7969bNu2jT59+gDOrng/Pz/AOT1DluWrOxqhSiiK8nd3e/9YldMIatOYDAT07QRA/qptF72Nxa7w4a4iei1I48nVeaQUOKgfqOX+eH/mDwvh1ja+opiryKTXMLq9H+8MCyWhmRGHDAu3F9FnYRpfHSgW59driAq30B966CHuv/9+Pv74YwwGA/fccw8AAwcOJCsrq8Ld5Dt37mTWrFm8++67rla9n58fJSUlgLOYVKS1L1Qfy5EUbMmZaIP98Y1trnYcj+HTrrHaEVQTODSOgh+3Urh6B2GTB7k26HHICl8fLOGNTQWuFnmjYC0j2voS38BQbZufXK3ZA4PVjqCqEJOG++ICGNjcxOKdRRzJsvPQD7l8ureY2YNCaB4mlpT1ZhWunN27d+e7775j//79dOzYkfr16wNw9913ExcXV6EW+qlTp5g1axbvvfce4eF/77PctGlTDh8+jM1mY+/evcTExFzFoQhVxbXUa0Inr9hpy11qy4IyF+MTE42xZX0sR89QtGEfAQO6sP6UhVnr8jmc6Twf2yBQy+gOvsQ1MFx0HXVP4G0LylSXJqE6nu8fxMZEC8t2F7M12crAxenM6BnI9O4B6MXYBq9UqVd3dHQ00dHR5S6bMGFChe///vvvU1hYyMMPPwxAfHw8wcHBTJgwgbFjxzJu3Di0Wi1z5sypTCyhCil2B0Xr9gBidLtQXtCwHmTM+ZL0bzYzLbchG045R0yH+2kY3d6X6xsZPa5FLlyaJEnc0MSH2HoGlu8pZu1JC3M2FfDTkVLeGBpC20jDlR9E8CgVLuiKovDFF1+wbt06SktLLzjPXZG13F9++eVLXnf+zm6Cekp2HsWRV4y+YQTGFvXVjuNRLCfPArVrk5bzKT07YJ33PYajp0kJTcE3NIIRbU0MamnyyNHqj/+ce8FlWcXO9606fuJ8/j9F+WvIKnFu5Tp4SQYR/hq2TquLVnxI8xoVflXPmTOHZ555hmPHjmG321EUpdw/MZCtZvh7qdfOYnWpf3Bk5OHIyFM7htspisI3B0vouyyHHyJaATCt4BDv3BTCza19PbKYX0qhVaHQKgaAXYxJL1E/UEOAUUIB0otkbvskk5R8u9rRhAqqcAt95cqVTJo0if/85z/VmUdQkVxipviPgwAE9BM7qwmQmGvnP7/ksinR2b2+v31HRiTvpdOJv8hRhqIgpjTWJBpJoo6vhK9eIatYZnuK89z6a4NDGNLKV+14whVUuKAXFRXRr1+/6swiqKxo0wEUiw2f9k3QR4WqHUdQkV1WWLS9iNc35WOxg79BYkInP/o0DcN6vBGGo0kYt+zD3Leb2lGFauB7rrWeWSJTYFG4d2UOYb55RAVoPHbAo6dadeel122oahXucu/SpQu7du2qziyCys7vbhdqr2NZNoYvy+Cldc5ifn1jI28NDSGhmQ8aScLcx1nETeu3g5i/XGNpNRKRfhpCTc4Cnl0iczLHgc0hfueeqsIt9Pvuu4+HH34Yu91Ox44dMZkunMLTrZv4tO6t7Fn5lO4+Dnot/jd0UDuOoAKHrLBwexGvbczH6oAwXw1Tu/nTuV750c6W2DbI/r7oktPQnUzB3iz6Eo8oeDtJkgjykTDqFDKKZEptCsez7TQM1uJnEAMLPU2FC/qkSZMAmD9/PkC5AVOKoiBJEocOHarieIK7FK7dA4qCX/fWaAPEubLaJiXfzkM/5LA12QpAQlMjkzr74XuxN229DvP1XfD96XdM67ZTKAp6jeejc3bBZxTLmO1wKsdB/SDnQjWC56hwQf/oo4+qM4egsr+XehVzzy9F8vNRO0K1WPlXCf/5OZdCq0KQj8T9cQF0qX/5OcilN3TF96ffMW47QNHYQSj+3vEh0CDWSbpqWo1ElL+GnFKFAotCSr4Di10h0l8jZsR4iAoX9Li4uOrMIajIcvIs1hNn0QSY8ItrpXYcj2Vq30TtCFWq2Crz1Oo8vjzgXHa5a30D98X5V2izDjkiFGu75hgOHMfnj92UDryuuuNWifqBoqJfC0mSCPOV0GtlsksUMotlrA6FBkFaMVjOA1RqpbicnBw++OAD/vzzTzIzM1m0aBG//vorrVq1on///tWVUahmZYPh/G/ogGQQS2PWBocyrNy/MocTOXYMWriziz/9mhkr1dIq7dPNWdDX76B0QA/QiO7X2iLQqEGvUUgvksk3K9gdDhqFaMUiNCqr8F9gcnIyN998M59//jmRkZFkZ2fjcDg4deoUDzzwAOvXr6/GmEJ1UWTZtVWq6G6v+RRF4dO9xQz7KIMTOXaig7S8PDCY/s19Kt1tau3YEkdIILr0bPR/naimxIKnMukl6gZo0EpQbFM4mWMXI+BVVuGCPnv2bMLCwvjtt9+YN2+ea7u9OXPmkJCQUOHd1gTPUrr3JI6sfHRRIbV6N7GKKNlyiJIt3jvws9Qm8/CPuTz2Uy4WOyQ0MzLrxmCig66yV0arpTTBeSrO9OuWKkxafU7lOjiV61A7Ro1h1DmLul4DZjuczLFjtYuirpYKF/TNmzdz//33ExgYeMEn+TFjxnDs2LEqDydUv/MHw4mBLTXXqRwbN3+UyZcHSjBq4V/d/bkvLgCj7tp+5+besSg6HcZ9x9CmZ1dRWsGb6LXOom7QgtXhLOoWUdRVUeGCLkkSev3F98q1Wq2iGHgh2WKjaON+QCwmU5P9eryUoUszOJxpo26AllkDg+ndpGpG7CsBfpi7O9ct8Plta5U8puB9tBpnUTdqwSY7i7pZFHW3q3BB79q1KwsWLKCkpMR1mSRJyLLMp59+Spcu4vyrtyne/BdKiQVjTDSG6Ai14whVTFYU3vy9gLu+zKbQqhDXwMDLA4Ouvov9Ekr7dwfA5/fdSKXmKn1swXtoJImoAA0+OrDLcEoUdber8F/2I488wu23386NN95IfHw8kiTxwQcfcOLECZKSkvjkk0+qM6dQDQrXlHW3i9Z5TVNkkXnohxx+OWZGAm7v6MstrU3V0pPmaBiFNaYxhiOJ+Py+h9IB3av8OQTvoJEkIv01pBeVLUBjp2mo7ppP7QgVU+EWesuWLfnyyy+Jj49n69ataLVa/vzzTxo2bMiKFSto3bp1deYUqpgjr4iS7UdAo8G/bye14whVKEUyccuyDH45ZsZPL/HEDYHc2sa3Wk+LuVrpv20BsZVyrVZW1M9vqYuBcu5x2RZ6ampque+NRiOPPPLIJW9br169qksmVKvC9fvAIeMb3wpdiL/acYTz3OEbf9X3LUbLGY0vcpYdvQZCTBKf7ivm033FVZjwQho5ktm+AdTJyGH5h3vYX7dmLcIjVE5ZUU8rlLE44FSus6Wu14qWenW6bEFPSEio1Kd6sZa79/h7dLvobq8oQ5MotSNcVq6kJ13yAUnCpIcIP/dtdSlrNKxt3pHR+36n/7HdHlvQw3xFQXGXsnPqZwtlrOeKerNQnVh8phpdtqDPmjXLVdDz8/N5/fXX6dGjB4MHDyY8PJy8vDzWrl3L+vXrmTlzplsCC9fOmpKJ5dBpJJMBv55t1Y7jNXSRIWpHuCgFSJd8yNM4118PkK2E+VV+oZhrtalJe245uIX2aUnUy88mNSjMrc9fEYFGsZqdO2kk5/rvZwtlLHZIzHXQJFQsE1tdLlvQR4wY4fp6+vTpDB8+nBdeeKHcbYYNG8ZLL73ETz/9xJgxY6onpVClylaG87++PRqfy2/CIXg2B5Cq8aVY0oGiEKpY8VPsSNKF2xtXt2KjD382bkPfE/u48egulnYb4PYMgufRapwt9dQCmRKbwuk8B42CtWKqczWo8MfVP/74g0GDBl30uj59+rB79+4qCyVUH0VRKDq3dntAP9HdXhn29Fzs6blqx3CxIpGk8aNY0qFRFCJkM36KXdVMq1t2QQZ6JB0isLR6z9tfjQKLTIFFDNpzN925oq6RoNCikFogu1YbFapOhQt6SEgI+/btu+h1W7ZsITIysspCCdXH/FcSttRstGGBmDo3VzuOV7GeSsN6Kk3tGACUoiVJ44dV0qJTZCLlUoyoX6jSA0LYU78ZetlBv+N71Y5zgewShewSUUjUYNA6B8pJQE6pTGax+q/XmqbC89BHjx7N/PnzMZvN9OnTh5CQELKysvj555/59NNP+c9//lOdOYUqUrh6J3BuqVetOJ/ojQokHWclE4ok4aPYCZMtFf9k7ga/tIyly5kT9D2xlx9bd8Oqu/gKk0Lt46OTCPfTkFEsk14kY9BKBJs86dXr3Spc0O+77z4KCgr44IMPeP/99wFn963RaGTGjBmMHz++2kIKVUO22iha7+xlCRggVvbzNgqQIxnI1DiXbfWTbYQoVjztTOSxOvU4ERpFs5w0rkv8i3XNO6odSfAgfgaJUFkip1QhJd+BXgt+BlHUq0KFC7okSTz++ONMmzaNPXv2kJ+fT0hICJ06dcLPz686MwpVpGTLYeSiUozN62H08ClYQnkKkCb5kK8xgKIQpFgJUOweV8wBkCR+iYll2uYfufHoTtY3bY8i9koXzhNolLA5oNDqHCTXLEzCIOaoX7NKL+ocEBDA9ddfXx1ZhGpWuOZcd7tonXuV80eyS4pCqGzBF8/eAnRX/eZk+gUSWZRP59ST7GogxmsIf5MkiTBfsMkKZjsknVt4RsxRvzaqfGx++eWXWbduXbnLXnjhBcaMGcPEiRP53//+p0asGs2RX0zx1sPOpV4TxOh2b2FD4vR5I9nDZbPHF3NwLjSzpoXzg+PAIztUTiN4IkmSiPDToDu3l3pKvkOMfL9GVbvt0hU4HA6eeOIJduzYQffu5TdwSExMZPny5ZfcolW4NoXr9vy91GtogNpxhAowoyFF44td0qBTZMJlMzq85w1vU5O23HJwMy2yz9I86wzH69RXO5LgYbQa58j31EKZAotCZrFMhL9W7Vhey60tdIfDwbBhwxg+fPgF16WkpDBt2jTuvvtukpKS3BmrVihcXbbUq+huv1q+3Vvj2909mxAVo+W0xg+7pMGoOIiQS72qmANY9AbWnhsQN/TQdpXTODUJ0dIkRBQMT2LQOlvqAOlFMgVmMZ3tarm1hW4wGLj++uvZs2dPucutVivDhw/n7rvv5tixY7z44ossXLjQndGqTOqTS9SOcAG51ILlSDJoNRSs2elaKU7wTHmSnrRza7L7ynZCFYtnDn6rgF9bdObGo7voePYUDfIySQkOVzuS4IF89RIhPhK5ZoXkfAfNdZLYcvUqeMTQU51Ox8SJEzEYDLRt25acnBy1I9Uo9sx8ALShAUhitLHHUoBFhqakaUwgSQTIVq8u5gCFPr5sbNoOgCGHPaOVLnimIB8JXz3ICiTl2XHI3tUj5Qk84t09MzOTyZMnoygKJ06cIDxcfIqvKoqi4MhyFnRdeJDKabxb6f5TlO4/VS2PbUfiRZ82LDQ2A0UhRLYQrNi8upiX+TmmK3ZJQ1zyUSIK81TNcqbAwZkCzx9UWBtJknPRGb0GLHbn70oMkqscVQv6tm3bWL58OZGRkSQkJDBmzBiee+45sXNbFZILSlCsdiSDHk2Ar9pxvJpSbEYpNlf54xaj5RFTJ37Q18egOKgjW/BXeU32qpTrG8DmRq3RKAqDVB7xbnU4/wmeSSNJRJxbHjbfrJBTKs6nV4Zbz6GXmTFjhuvruLg4AKZOncrUqVPViFOj2c+1zrXhgWJ3Iw+UJRl42NSZI9pA/BUb0yzH+VTfUO1YVe6nVl25LvEg1yX+xXdtu5Nn8lc7kuChDFqJOn4SmcUKZwtkTDoJX7GSXIWIn1INpjhkHDmFAOjqiO52T3NK48dk3ziOaAOJkM38n/kwjWXP26GsKqQFhrKzQQv0soMbj+xSO47g4fwNGgKNEgpwOs+BXZxPrxBR0GswR24hOGQ0fj5oTEa14wjn2a0N5h7fbqRpTDRxFPGo+TDhikXtWNXqx9bdAOhzch9+llKV0wieLtQkYdSCTRaLzlSUKOg1mD0jDwBtRLCqOYTyftNF8ICpC4WSno72XB60HMWfmnPO/FJOh0SyP6oRPnYbNx4VUyeFyysbJFe2h3pWiTiffiWioNdQstmKXFACkoQuLFDtOMI5K/TRPOnTAauk5XpbBvdYT2DwgH3M3eW7Ns4VIvsf242fpeoHGAo1i14rEe7rLFNphTIl1trzt3I1REGvoVxzz8MCkHRiZayqoI0IvureDhl4x9iCN31aoUgSt1hTGGs7Xev+AE/UqceByEaY7FZuPOr+c+kBBokAgxgc6k18DRKBRufv7HSeQ8xPvwxVRrkL1UtRFByZeQDowoNVzVKTGJvWvar7WZF43qcda/RRaBSZidZE4h3Vu3iSPaugWh//WnzdoD3t0pPof3QXq+q0oFjvvvEdwef+t1fwFL6ujujd8gShJgmzXcHqcJ5PbxisFbN2LqK2NRBqBTm/2Dn33KhHEyjmnqupCB0PmbqwRh+FUXEw3XK82ou5pzseFMn+kHqYHDYGJR9QO47gBcp2ZpMkKLCI+emXIgp6DVQ2GE4XHiw+xVYhuagUuajio7MzJCP3+nZlpy6UQMXKw+bDtJY9t+XsTiubODcJujH5IH42943ut6LBKt72vJJeK1HH1/l+drZAptQmut7/SbyyaxjFZseRWwSAViz1WqXMBxIxH0is0G1PavyY4tuN49oAIuVS/s98mGhFTNUqcyxYnVZ6utZEutbktucTqpa/QYO/wTk/PTnPjiymspUjCnoNY88qAEVBE+SHxij2llfDHm0w9/p2I11joqmjiEfMhwlTrGrH8jhqtdIF7xbmKznXe3c4W+rC30RBr0EURcFeNhhOzD1XxQZdODNMXSiQ9HSw5/KA5Qj+iMXDL0atVrrg3TTn5qcD5JTK5Iv9011EQa9BlGIzSokFdFq0IWKtbHf7Wl+fmT4dsUpaernmmIsuwcsRrXThahh1EqEm5/n0M/kObA7xdwaioNcotrLBcHUCxb7nbqQA7xua8opPG2RJ4ibrGW63nUbM/r+ycq300/vVjiN4kUCjhEkHDgWSxdKwgCjoNYZid/y973lkiMppag87ErONrfnA2AxJURhnSWSI/WyN2MfcXb5p6mylD0w5SIBVDBwUKqZsaVitBMVWhcxi0fUuCnoNYc/KB1lBE+grNmJxEzManvDpwEpDA/SKzFTrCXo5stSO5XWOB0WyOywaH4edmxP3qB1H8CJajUSdc+fT04vE0rCioNcAiqJgT88DROu8Ovm0a4xPu8YAFKDjAVMXNuoj8FXsPGA5SkdHnqr5vNmXzboiAwlnDlOntLDanifSUUqkQ/QC1CS++r+Xhk3Or91Lw4qCXgPIhaUopRbQa9GGBKgdp8bS+JvQ+JvIlIzc59uVvboQgmXngjHN5CK143m1ZP9QtkQ2Q6/IDD9VfTuxGZBr1WY4tUWIScKgBasDzhbW3lkloqDXAPb0XODcynAacfa2Op2WfLnHtxsnzi0Y86jlMPUUsWtYVfi6SRfsksR1acepV5yrdhzBi5RNZZOA3FKl1k5lEwXdyyk2O44cZxelmHtevdJPZbErqYSzGhONHUU8Yj5CqFgwpspk+AayoV4MGhRGndxZLc+RIxnIkQzV8tiCugzav6eypeQ7sNbCqWyioHs5e2a+c2W4YH80PuKNqrrs0IYQkJ7JjamHaOPI50HLUfyxqx2rxlnZuDMWjZaumUk0zc+o8scv1ugp1ogVFGuqAKOErx5kBVLyat9UNlHQvZhzMJyza1IfGaxumBpsnS6Ch0xdXN/fZzmOUZyHrRb5Rl9WR7cFYPSJHVDL3pCFayNJEnV8z01ls9W+qWyioHsxOb8YxWJDMujRBIuV4arDd/p6/MenAzbp7z8VnVj9rVr92LADxToDbfLO0jY3Ve04gpe5YCqbrfYUdVHQvZjtrHNfbV2k2Ca1OizXN+Iln7bIksRQ6xm149QaJXojPzbsADhb6ZJopQuVVG4qW17tmcomCrqXkkstyPnFIEliMFwVU4D5hubM9WkJwGhrEkPtZ9UNVcusjm5LrsGXJoVZxKefVDuO4IVq41Q2UdC9lL2sdR4ehKTXqZym5nAArxpb8ZGxCRpF4U7LSfrYM9WOVetYtTq+Prck7G0nd6B3iAGIQuX8cypbXmnN73oXBd0LKTa7c6lXQFc3VOU0NYcdied82vG1IRqdInOv5ThxjhzX9aV+fpT6+amYsHbZWLcFp/1CCDcXcWPKwSp5TL3iQK/UjtaaUH4q25mCmj+VTRR0L2TPyHOu2x7kJ9ZtryJmNDxu6shqfV18FAf/shylvZxf7jaJnTqS2KmjSglrH0XS8GmLeACGJe6tko1bomQzUbJYCKg2OX8qW3INn8qmSkF/+eWXWbduXbnLVq5cyahRo7jrrrtIT09XI5ZXUGQFe9q5qWqidV4litHyb1NnfteF46fYeNByhJZiKVePcDC0PnvDGuDrsFXrkrBCzXX+VLYSm0JGUc3tendrQXc4HDz22GOsWbOm3OVWq5VPP/2UFStWMH36dN577z13xvIqjpwCFJsdyWRAEyS6f69VPjpm+MaySxdKkGzlYfMRGsklascSzrOiWRwyEn1TD1OvOE/tOIIX0mqc59MBMoplimvormxuL+jDhg1j+PDh5S4/efIkLVu2RKfTERsby4EDB9wZy2soiuIaDKePChVT1a5RtmRgmm9XDmqDCJMtPGI5TN3LrMve+o8/af3Hn25MKACc8Q9hfb0YtIrC2OPbrumxkrV+JGvFB+HayKSXCPL5eyqbvQZOZXNrQTcYDFx//fUXXF5UVITfucFGkiQhyzXz09O1kgtLkYvNoNOiDQ9SO45XS5eM3OvblePnNll5xHKYOmJddo/1ddMulGr1dMpOpk2OWGxGuDohPhJGLdhkOJNf886ne8SgOD8/P0pKnN2ciqKg04lpWBdjP5sNnFtIRuMRvzqvlCyZuNe3G8kaPxrIJTxsPkKwYlM7lnAZBQYTPzRyLjZz+/GtSIr40C9UnnRuKptGggKLQnZJzXodeUTlbNq0KYcPH8Zms7F3715iYmLUjuRx5BIzjtwikCT0UZ47GO4O33i1I1yWBQ2nNb44JA0GxfkJfZ6xRYXu+xHO7vaXja2rM6JwCT9HtyPhzGEaFeVw/dnjbKzXUu1IghfSa52D5DKKZdIKZfwMGkz6mnH6UtVm3rZt21i+fDlGo5GxY8cybtw4Xn/9de699141Y3kk25nzWudiIZmrYj6vmBsVB+Gy2TO6qIQKsWl1fN6sKwC3ndiOr82iciLBW/kZJAIMEgpwOs9eY5aGVaUyzJgxw/V1XFwcACNGjGDEiBFqxPF4stmKI7sAJNDVDVM7jlcqRUuyxhdZkvBR7ITJFlHMvdDmyGYknDlMTH46w0/t5uOW3dWOJHipUF8Js0PB6nAuOhMdpPX6gcbiPc0L2FOdrXNtWBAao9jLubJK0HL6XDE3KXbqiGLuvSSJZS17ICPR/8xfNCjKufJ9BOEiNJJExLmlYfPNCrml3t9KF+9rHk622rBnOlcs09cXrfPKKjrXMlckCV/Z2TK/2s/gi2OuY3HMdVWaT6i80wFh/Fa/FVpFYeLRzZXaMz1EthAii656wcmglajj63xHSC1wUGrz7qIuCrqHs6dmg6KgDQ0Qy7xWUiE6zpwr5n6yjVDl6os5wPr6rVhfv1WV5ROu3tdNYynQ+9A6L434jFMVvp+/YsdfERu9CH/zN2rwryHn00VB92Cy1YY9PQ8Aff066obxMgWSjjMaE4ok4S/bCFGs11TMBc9SrDfyZdNYwDmNzWgX0w6Fqxfm+/dWqylePD9dFHQPZj9zXuvcz0ftOF4jX9KTKplAkgiQrQRXUTHvc+Ywfc4croJHEqrChnotORlQh1BLCTcn7anQfYokHUWSmCUilOc6n35ufnqWl85PFwXdQ8kWm3NXNUDfIFzdMF4kT9JzVvIBSSJQthKk2KqsZX73kT+4+8gfVfRowrVSJA0ftewBwODTB4gqyb/CPSBXYyRXI05dCRfSayXCfZ0lMa3QO9d7FwXdQ9nPZDlb52GBaHzFG1BF5EgG0jTOlnlQFRdzwTOdDIpgQ92W6BSZ8Ue3VGqAnCD8k59BIsjofNc4nefA5mX7p4uC7oFksxV7Zh4gzp1XVJZkIEPjPC0RLFsIFEu51hqfN+tKsc5Ax5wU4ioxQE4QLibEJOGjA7vsLOqyF31IFAXdA9mSM0EBbXiQaJ1fgQJkSkayND6gKITIFgLEKOZapdBg4vNm3QCYcGyLWEFOuCbSufPpZfunny3wnq53UdA9jKOo9NyqcJI4d34FCpAhGcnWGEFRCFUsYkpSLbW+XgxHgyIJtpYy+sQOteMIXk6rkYj0dy46k1Mqk13iUDtShYiC7kEURcF2OgMAXVSIWBXuMhQgXfJxDnBSFMJkC36Kd/zRCVVPkSSWxFyHXdKQkHqY5vnpakcSvJxRJxHmWnTGOwbJiYLuQeT8YuSCEtBqxLnzy1CAs5IPeRoDkqJQR7bgiyjmtd0Z/xB+bNgegLsP/45WFq8J4doEGDUEnhskl5TrwGr37PPpYkKmh1AUBWuSs3Wur18HSadVOZFnkoFUjYkiSX+umJvxwT2fnCclTHbL8whX77vGnYjPOEWD4jyGnN7P9407lbs+2lGsTjDBa4WaJGwOhVI7JObZaRaqQ6vxzPkzooXuIezpuSilFiSjHl1UiNpxPJIMnNH4uop5uBuLueAdbFodS8+tt39L4h7qFuepG0jwepIkEe6nQa8Bix2SPXglOVHQPYBisztHtgP6RhFIGvFr+ScHkKzxpVjSoVEUImQzRlHMhYv4K7QeG6NaYJAdTDm0CUkRrxPh2pQNktNIUGhROFvoma8pUTk8gC0lCxwymkBftCEBasfxOHYkTmv8KJV0aBWZCLkUgwrF/L/bV/Lf7Svd/rxC5X3SIp4cgy8tCjIYmHzQdXmaxoc0jVhGWag8vdY5nQ0gu0Qmq9jzxmiIgq4yudiMPT0XAEPjSCTJM8/NqMWGxGmNLxZJi06RiZDN6FGnu6tJYTZNCrNVeW6hckr0Rha36gXAqJM7iTrX9W6TtNgkMT5FuDomvUT4uZHvZwtlCsye1VIXBV1FiqJgPZUGgC4yBI2vaDmcz4KGJI0fVkmLXnEQIZvRqVTMBe+zr060q+v9HtH1LlQRf6OGYJ+/l4f1pOlsoqCryJ6Rh1xUCnot+mixiMz5StFwWuOLXdJgOFfMtaKYC5V0qa53QbgWwT4SAef2UE/KdWD2kOlsoqCrRLHaXYvIGBpHiWlq5ylGy2mNHw5Jg49iJ1w2ixeqcFVK9EaWtHKOeh91cqfKaYSaQpKci86Y9OBQIDHHjtUDNnIR75MqsSalOwfCBfuhDRUD4coUSDqSNb4okoSvbKeObBEvUuGa7K3TkI11nV3vglBVytZ8N2rBJjuLul1Wt6iL90oV2HMKneu1ayRn61wMhAMgWzKQqvEFScJfthGqWMT2p0KVWN6iO+km8cFZqFoayTmdTa8FiwNO5dhxqFjUxUpxbqbY7FhPnQVAHx2BxsegciL1lW2ykqtx7iwXJFsI9MBNVtbVi1E7gnCVzDoD/2vblyEpB5AAxaBnf1gDtWMJNYBWIxHlr+FsoYzZDom5DhqHaFVZTU4UdDezJqaDzYEmwFesCIdz9bezGhOFkt61Y5qnbrKy5Nw0KME7nQwM56acVEaf3EGewcSTccMpNJjUjiXUALrzinqJTSHpXFHXuLmoiy53N7JnF/zd1d6sbq3varcjkazxpfC8pVw9tZgLNcOPjdpzKDiKYGsp9xzaBB66hKfgffRaiboBzn3Ui20KiXkOZDe/vkRBdxPZanPNOdc3FF3tZXPMz1/9zdPXZW9ckEXjgiy1YwjXwCLpeLNdP4p0BjplJzPk9H61Iwk1iF4rEVVW1K0KibkOStw4T10UdDdQFAXr8VSwO9AE+aGLrN1d7cVoSdL4YZM06BUHkbIZgxfMMX9+x7c8v+NbtWMI1yBda+KYKYxFrXsDMPrEDlrlnlU5lVCTGP5R1Cd+nuW2ou7Wgm6323nooYcYN24cs2fPLnfdCy+8wJgxY5g4cSL/+9//3Bmr2tlTs537nOu1GJvVq9Vd7bmSnmSNL7IkYVLsYsEYQRW7whvxfaMOaFCYfmAtIRaxrapQdQzndb9vS7Hy/eFStzyvWwv66tWriYmJ4ZNPPqGgoIB9+/a5rktMTGT58uUsW7aM+++/352xqpWjsMS1k5qxWT0kQ+0ch6gAaZIP6RoTSBIBspUwMcdcUNFXTWI5GFKXIJuZ6QfWohXz1IUqpNdK+BmcjbdCSw1soe/Zs4f4+HgAevbsya5du1zXpaSkMG3aNO6++26SkpLcGavaKFY71mNnANDVDUUb7K9yInXYz22wkqcxOEeyyxaCFZuYYy6oStZoeLdtX7KNfrTMz2Ds8W1qRxKEa+LWgl5UVISfnx8AJpOJ4mJnN5fVamX48OHMnz+fRx55hBdffNGdsaqFoihYjp9BsdrRBJjQR0eoHUkVpWhIPDf4TXNutzQ/D5xjLtROhQYTc9slYJc0DEz5i15nj6odSRCumlsLup+fHyUlJQCUlJQQEOBcuUmn0zFx4kQMBgNt27YlJyfHnbGqhe10xt/nzVvUR1JhkQE1KTjPl5/W+Lk2WImSzRg9fCS7UPucDIpgWcseANx9+A9a56aqnEgQro5bC3q7du3Yts3ZrbVlyxY6dOgAQGZmJpMnT0ZRFE6cOEF4uHfvPGbPysd+NgckMLZogGTQqx3JrWTg7Lnz5cq5ZVzF4DfBk62r34pV0e3QKTIP7P+Nuuf2TxcEb+LWgj548GAOHTrEmDFj0Gq1WK1Wli9fTmRkJAkJCYwZM4bnnnuOmTNnujNWlXIUlmA9cW5p10aRaAN9VU7kXpZzXewFGgOSohAqmwlRrDXifPkzXW/hma63qB1DuAaRjlIiHRcfcfxZ827sqNMIP7uVR/auJsDqnpHJglBVJEXx3qWSYmJiOHLkiNoxXGxnc0i68zWwO9BFhqBvHFlrpqgpwFf6BrxubIUiSegUmTqyGb1olQtexOCw8Z9dq2hamMWxwAhe7z8Gm652zkwRrl12iUyBReHZfkFM6VY1mwNdru6JWUNVKH32CtfiMbWpmOdIev7PpyOv+bRGkST8ZBuRcqko5oLXsWr1vNlhAFlGP1oUZHDflh/FdDbBa4iCXoV0EcFoAn2dg+BqSTH/XVuHcb492KSPwKTYCZPNhCrWGvnCuuvw79x1+He1YwjXIEcykCNdftnlfKMvr3caSKHeSOfUk0ze9guSLAZzCp6vJr7vqibqyXH4tGmEpNOqHaXaFaHjBZ82POLbmVyNkRaOAp40/4VvDd5cpW/qEfqmes4pHqHyijV6ijVXHqSa6hfC6x0HUqoz0P30ESbt+g3Je89OCrWEKOhCpW3S1mGsXw9+0NdHr8iMtCbzoOUooYpV7WiCUGVOBYbzdq9bsGq13HDyAJN2/iqKuuDRREEXKixLMvCkT3se9e1MpsaHxo4injD/RT97unghCTXS0YgGzL3u76J+1/bVovtd8FjifVi4IjsSX+ijGe3Xk1/1URgUB6Osp3nUcpgoxax2PEGoVgejGvFWr1uxaHX0SvyLqVt/RuuouaeWBO8lCrpwWXu0wdzpG8/rPq0olvS0c+TxtPkgCfYM8eIRao3DkQ15o/dwzDo98clHeOj3lfjYLGrHEoRyxHuycFGpkg//8WnPvb7dOKYNIFS2MNVynPstxwkT58qFWuhYeANm972NfB9f2qaf5vF1XxBUWqR2LEFwEQVdKCcfPW8ZWzLa7zp+00ehVxwMsaXyjPkgnRx5NWLFt6t1KiCMUwFhascQroFecaC/hpkYp0MimZUwhjT/YBrlZfLMr5/QJDutChMKwtUTSyAJgHMa2gpDQz4xNKRYck7ribNnc7MthVDFpnI6z/Bst1vVjiBcoyj52sd8ZPoH83LCGKZt/oGYzDPMXPc5H3btz5+N21RBQkG4eqKg13KF6PjM0JDPDA0pOFfIWzvyudWaQrQi1rIWhIsp9PHl9d4juX3PehJO7GPKtl9okXWGTzv1waqrXZsxCZ5DFPRaKksysELfkK8NDVwt8uaOQobZztBCFucFBeFKHFoty2P7cTo4gvG713HDyQM0yzrLez2GkBpUR+14Qi0kCnotc1TjzwpDI1brorBJziEUMY4CBtvO0kIurNXnyK/ko7UfADApYbLKSYSrlaz1AyDaUVxlj7mxWXtOhUVx3+YfaVCQzbNrPuGbdj1Y3TIWWSOGKQnuIwp6LWBDYr0ugi/10ezRhQAgKQqd7LncaE+jsVx1b26CUBslB4fz3wHjGbd7Pb1PHWD0vt/pmnKMJd1u5IxorQtuIgp6DXZS48cP+nqs0tUjV+PckMJHcdDdnkVfewbhiphHKwhVxarTs7TbAHY0aMGdO9bQNCed51Yv57fmnfi2bQ9KDUa1Iwo1nCjoNUy2ZGCNLpKf9XU5pA1yXV5fLqGXPZN4ezY+iKUrBaG6HKjbmKcHTmLk/j/oc3IfNx7bTXzyEb5r052NTdrh0Nb8zZsEdYiCXgNkSwY26ML5TRfJLm0o8rmtW30UO13tufR0ZNFILhbnxwXBTUoNRpbHJrCxaTvG71pLi+yzTNy1lsGHd/Bd2+782ai1OL8uVDlR0L2QAiRq/PhdV4eN2nD2a4NRzhVxrSLTwZ5HV0cOHRx5GBC7QwmCWk6HRPBywhhizxxn+IE/qVeQw93bVzP48HZ+iunKlkatsGvF27BQNcQr6TxDlqZf82PYfOOrIMmFHEAJOoolHUWSDrt03qd7RcFHseOrODApdnIlA2t0UazRRVVLFkEQKkGS2NmgBbvqNaP76cPccnALdQtzuXvHGkbt/511zTqwrllHCkx+aicVvJwo6B7KjkQpWkokLSWSDgsakP7uNNecK+ImxYEPDrGGrxssjrlO7QjCNQqR1RsIqmg0bG7chm0NY4g7fYQbj+6mUV4Gt/y1lSGHdzDvumHsr9tEtXyC9xMF3QMogAUNpZIWM1pKJS1W6R8DZxQFo+LAqDgwKQ70yOKcuJutr99K7QjCNfJX7GpHwKHRsrlxGzY3ak3LrDMMOLqbjmdPYrKJTY+EayMKups5ACtazJIGC1rMkhYLGtc58DKSomBAdhVxA7JohQtCTSJJHA1vwNHwBmonEWoIUdCrgQI4kLCiwSppsKLBcq6Alzv3fR6dImNQZAw4zv0vWuCeps+Zw4BoqXuzIsn5lucJLXVBqGqioF8lWVGwOcDmULA6wOpQsDoULBo/rGhcU8cuoCjokdGfK9pl/4vWt+e7+8gfgCjo3ixX41zcxd8hCrpQ84iCfhEOWcEug01WsDuc/9scYJedxdvmcF5/UefOfUuKgg4Zvet/GT0yOhTR8hYEQRCqnCjo55zOs3Msy4bVAXIFp25rJdBpQa+R0GlApwFNYQm6cy1uUbgFwbvZswrUjuD1dHUC1Y5Qa7i1oNvtdh599FEyMjLo0KEDM2fOdF23cuVKli9fTkBAALNnzyYyMtKd0fgzyYL5XC+cBGg1zoKt1YBOI537H3TS319LF+lWtxeKZVUFQRAE93PrqdvVq1cTExPDJ598QkFBAfv27QPAarXy6aefsmLFCqZPn857773nzljl+BskGgVriA7SUi9QS6S/ljBfDcE+GvwNGnz0EnqtdNFiLgiCIAhqcWtB37NnD/HxzpXUevbsya5duwA4efIkLVu2RKfTERsby4EDB9wZ6wKiWAuCIAjexq1d7kVFRfj5OZc3NJlMFBcXX3C5JEnIsnrd1kVWhSKr4+ofQCuWb6zpksXv2OuJ36Eb5V7D+6lQKW4t6H5+fpSUlABQUlJCQEDABZcrioJOV/FYMTExVZbPt8oeSaiJhp7733fJt6rmEATBu7y2BF5zw/O4taC3a9eObdu20blzZ7Zs2cJtt90GQNOmTTl8+DA2m429e/dWuEgfOXKkOuMKgiAIgtdw6zn0wYMHc+jQIcaMGYNWq8VqtbJ8+XKMRiNjx45l3LhxvP7669x7773ujCUIgiAIXk9SFEVsmC0IgiAIXk6sOCoIgiAINYAo6IIgCIJQA4iCLgiCIAg1gCjogiAIglADiIJeTbKzs5k2bRpdu3YlPj6el156Cbv9wi0brVYrL730Er169aJz587cdtttbN68WYXEFVPR4zrfH3/8QevWrUlJSXFTysqrzHENGzaMjh070rlzZ9e/EydOuDlxxVXm2H799VduvfVWYmNjGTp0KGvXrnVz2oqr6HENHTq03O+qc+fOxMTEsGDBAhVSX1lFj0uWZd5880169+5NbGwso0ePZtu2bSokrpjKHNf7779PQkICXbp04c477+To0aMqJK6cxMRE4uLiLvs+98033zBgwAA6derEiBEj2L17d9WGUIRqMXHiROXhhx9WiouLldOnTytDhw5VFi5ceMHtXn/9dWX48OFKenq64nA4lOXLlysdO3ZUioqKVEh9ZRU9rjIZGRnKddddp7Rs2VJJTk52Y9LKqehxlZSUKK1bt1aSkpJUSHl1KnpsGzZsUDp16qT8+eefiizLyg8//KC0bdtWOXv2rAqpr6yyr8Uyb775pnLLLbd4/d/Yxx9/rAwZMkRJS0tTHA6HsmTJEqVTp06K2WxWIfWVVfS4lixZosTHxyu7d+9WbDab8tFHHynx8fFKdna2CqmvTJZl5ZtvvlF69Ohx2fe5rVu3Kp06dVK2b9+uWK1W13GWlJRUWRZR0KtBYmKi0rJlSyUtLc112Y8//qj06dPngtva7XbXL7S4uFiZN2+ecv311ysWi8VteSuqMselKIricDiUSZMmKW+99ZZHF/TKHNeOHTuUbt26uTPeNanMsU2ZMkV54403yl128OBBpbCwsNpzVlZlX4tlNm/erHTq1ElJTEys7ohXpTLH9fzzzyuDBg1Szp49q9jtdmXp0qVK9+7dldLSUndGrpDKHNdtt92mzJs3r9xlgwYNUj7++ONqz3k15s6dqwwZMkT5/PPPL/s+98gjjyhPPfVUucsGDRqkfPnll1WWRXS5V4Njx44RHBxcbgvYZs2akZqaSkFB+f2VtVotJpOJL774gi5duvC///2PmTNnYjAY3B37iipzXADvvvsuYWFhjBw50p0xK60yx3XgwAFMJhMTJ04kPj6eESNGeHS3dGWPLSAggDvvvJP4+HhGjRpFYWEh/v7+7o59RZV9LQI4HA6effZZpk+fTqNGjdwVtVIqc1y33347FouFG264gfbt2/PWW28xd+5cfHx83B37iipzXLIsYzKZyl0mSRInT550S9bKuu222/jhhx/o0aPHZW93/PhxWrZsWe6y5s2bc/jw4SrLIgp6NSguLr7gBVn2fdma9f908803s3//fl555RUee+wxduzYUe05K6syx7Vt2za+++47nn/+ebflu1qV/X21b9+e559/nk2bNnHXXXfxwAMPsGfPHndErbTKHFt+fj4ffvgh//73v9m0aRMjR47k3nvvJTk52W15K+pq/sa+//57SktLmThxYrXnu1qVOS6LxULnzp1ZtWoVu3btYsqUKcyYMYPMzEy35a2oyhzXwIEDWbZsmWs58E8//ZSkpCQsFovb8lZGZGRkhXbovNjPwMfH55Kv16shCno18PX1pbS0tNxlZd9fqrVjNBrR6/UMHTqUnj178vPPP1d7zsqq6HHl5OQwc+ZMXnvtNY9s3f1TZX5fd9xxB/PmzaNJkyYYDAaGDRtGz549+eWXX9yWtzIqc2xGo5HRo0fTsWNHDAYDt99+Ow0aNGDjxo1uy1tRV/M39vnnnzN69GiMRmO157talTmuxx9/nL59+9KsWTN8fHyYPn06AQEBXv3eAXD33XczYsQIpk2bRt++fUlNTaV3794EBQW5LW91MJlMmM3mcpeZzeYqfY8UBb0atGjRgry8PLKyslyXnThxgqioqAt+eY8++igffPBBucssFgvBwcHuiFopFT2uTZs2kZ2dzeTJk+natSs333wz4OyFeP/9992e+0oq8/tatmzZBQXOarV6bJGozLE1a9YMq9Va7jKHwzO3vqzMcQFkZWWxa9cubrnlFnfGrLTKHNfZs2cvGCWu0+nQ6/VuyVoZlTmutLQ0Ro4cydq1a/n999958MEH+euvv2jfvr27Y1epFi1acOzYsXKXHT9+nObNm1fZc4iCXg0aN25MbGwss2bNoqioiOTkZN59911GjRp1wW27dOnCBx98wNGjR7Hb7XzxxRfs37/fVQQ9SUWP65ZbbmHv3r3s2LGDHTt28N133wHw3XffMXXqVDWiX1Zlfl9paWm88MILJCYmYrfb+fLLL9m9ezfDhw9XIfmVVebYxowZw8cff8z27dtxOBx88sknpKWl0b9/fxWSX15ljgtg165dREREEB0d7eaklVOZ4+rXrx//+9//SE5Oxmaz8eGHH5KZmUnfvn1VSH55lTmuH3/8kWnTppGbm0txcTFz5szBYDB45HFVxqhRo/j+++/ZsmULNpuNpUuXkp2dzYABA6ruSapseJ1QTmZmpjJjxgwlLi5O6d69uzJ79mzFbrcrZ86ccU1dKLNw4UKlb9++SmxsrDJ+/Hhl7969Kia/vMocV5nk5GSPHuWuKBU/LovFosyePVu5/vrrlY4dOyojR45UtmzZonL6y6vM7+zzzz9XhgwZonTq1Em59dZbPfrYKnNcixYtUkaNGqVi2oqr6HEVFRUpL7zwgnL99dcrXbt2rTHvHVarVXnuueeU+Ph4JTY2VrnvvvuUlJQUldNf2T/f5y72Oly5cqUycOBApVOnTsqoUaOUPXv2VGkGsduaIAiCINQAostdEARBEGoAUdAFQRAEoQYQBV0QBEEQagBR0AVBEAShBhAFXRAEQRBqAFHQBUEQBKEGEAVdEARBEGoAUdAFQRAEoQYQBV0QBEEQagBR0AXBC5nNZubMmcONN95Iu3bt6NKlC5MnTy63t/KmTZsYN24cnTt3plevXjz33HMUFRW5rk9MTOSBBx4gLi6Obt26cd9997n2nN66dSsxMTFs3bq13PNOnDix3PajCQkJvPLKK9x555106dKF//73vwAcPnyYf/3rX3Tv3p22bdvSu3dvXnzxxXK7TdlsNubNm0f//v3p2LEjN910E99++y0Ay5cvJyYmhlOnTpV7/q+//pq2bduW2+RDEAQnUdAFwQs99thjfPnll0ydOpXFixczc+ZMDh8+zMMPP4yiKGzYsIGpU6cSGhrKW2+9xaOPPsrPP//Mo48+CkB6ejpjxozh1KlTPPfcc7z22mtkZGRw5513UlhYWKksH330ETExMbzzzjvcfPPNZGRkMH78eEpLS5k9ezYLFy5k0KBBLFu2jI8++qjcMSxcuJDbbruN9957j549e/LYY4/x888/M2zYMAwGg2tjnzIrV67k+uuvp06dOtf+QxSEGkandgBBECrHarVSXFzM008/zZAhQwCIi4ujqKiIV155haysLN555x1atWrFvHnzXPfTarXMmzePnJwcli5ditlsZvHixYSHhwPO7R0nTJjA3r17K7UFZ0REBI8//jgajbN98Pvvv9O6dWvefvtt19aYPXv2ZPPmzWzdupWpU6dy7NgxVq1axZNPPsmkSZMA6NGjBykpKWzZsoVBgwbRv39/vv/+ex588EEAzpw5w7Zt23j77bev/YcoCDWQKOiC4GUMBgMffPABAJmZmSQmJnLy5EnWr18POAv+wYMHmTFjRrn7DRs2jGHDhgGwc+dOOnXq5CrmAPXr12fdunUAF3S1X06zZs1cxRygV69e9OrVC7vdzqlTp0hMTOTIkSPk5OQQHBwMwI4dOwAu2Dry3XffdX09cuRIVq1axc6dO4mNjeXbb78lKCjI67fRFITqIgq6IHihTZs2MWvWLE6ePImvry8xMTGu1nBaWhqKohAWFnbJ++fl5dGgQYMqyfLP7m9ZlnnjjTf4+OOPKSkpISIigk6dOmE0Gss9P3DZjD179qRevXp89913roJe1hUvCMKFxDl0QfAyp0+fZvr06bRu3ZrVq1eza9cuVqxY4Wq5BgQEAJCTk1PufqWlpWzcuJGCggL8/f0vuB7gzz//5MyZM0iSBDiL8/mKi4uvmO/9999n6dKlPPXUU2zbto1NmzYxd+5cQkNDXbe5VMYTJ06wa9cuADQaDbfeeiurV69m3759JCYmMnz48Cs+vyDUVqKgC4KXOXDgABaLhalTp9KoUSNX8d20aRMAJpOJVq1aubrPy6xfv5577rmHnJwcYmNj2bt3b7mCmpGRwZQpU/jjjz/KtfbL5Ofnc+LEiSvm27lzJ82bN2fkyJEEBQUBzkF4R48edX1AiI2NBWDt2rXl7vvKK6/w6quvur4fMWIEubm5vP7667Rs2ZK2bdtW7IckCLWQ6HIXBC/Ttm1bdDodb7zxBnfccQdWq5Wvv/7adQ69pKSEBx54gOnTp/Pwww8zfPhwMjIyeOONNxg8eDCNGzfmrrvu4ttvv2XKlCncd999aLVa3n33XRo0aMCQIUMwmUzUrVuX+fPnu1rTCxYswGQyXTFfhw4dePfdd1m4cCEdO3YkKSmJBQsWYLVaKS0tBaB169bceOONvPbaa1gsFlq1asX69evZuHEj7733nuuxoqOjiYuLY+vWrcycObPqf5iCUINIiqIoaocQBKFyfv75Z+bNm8fp06cJCgqiU6dOTJo0iYkTJ/Lss89y++23s3btWubNm8exY8cICwtj8ODBPPDAA66ifPz4cV577TW2bduGwWAgPj6exx9/nPr16wOwb98+Zs2axcGDB6lTpw533HEHJ0+e5NSpUyxbtgxwzkOPi4tj9uzZrmxWq5XZs2ezevVqCgsLqVu3LkOHDkWSJBYsWMCff/5JQEAAVquVd955h++++468vDyaNWvG9OnT6d+/f7ljXbp0Ka+99hobN2687Dl3QajtREEXBMGjTZ48GV9fX+bOnat2FEHwaKLLXRAEj/Tee+9x8uRJfv/9dz755BO14wiCxxMFXRAEj/TLL7+QkpLCY4895hpEJwjCpYkud0EQBEGoAcS0NUEQBEGoAURBFwRBEIQaQBR0QRAEQagBREEXBEEQhBpAFHRBEARBqAFEQRcEQRCEGuD/AbsGeH8ToqmiAAAAAElFTkSuQmCC;" parent="1" vertex="1">
                    <mxGeometry x="120" y="503" width="500" height="343" as="geometry"/>
                </mxCell>
                <mxCell id="q7tcV7XlQ2ZevTYFs-G4-10" value="" style="group;fillColor=default;" parent="1" vertex="1" connectable="0">
                    <mxGeometry x="440.0013793103448" y="610.0009090909091" width="120" height="32.76909090909089" as="geometry"/>
                </mxCell>
                <mxCell id="q7tcV7XlQ2ZevTYFs-G4-1" value="&lt;font style=&quot;font-size: 15px;&quot;&gt;P(&amp;nbsp; &amp;nbsp;|&amp;nbsp; &amp;nbsp; &amp;nbsp;) = 0.015&lt;/font&gt;" style="text;html=1;align=center;verticalAlign=middle;resizable=0;points=[];autosize=1;strokeColor=none;fillColor=none;fontSize=19;fontFamily=Helvetica Neue;fontStyle=0" parent="q7tcV7XlQ2ZevTYFs-G4-10" vertex="1">
                    <mxGeometry width="120" height="30" as="geometry"/>
                </mxCell>
                <mxCell id="q7tcV7XlQ2ZevTYFs-G4-3" value="" style="rounded=0;whiteSpace=wrap;html=1;fontFamily=Helvetica Neue;fontSize=19;fillColor=#D33A6D99;strokeColor=none;" parent="q7tcV7XlQ2ZevTYFs-G4-10" vertex="1">
                    <mxGeometry x="38.756465517241395" y="10.367272727272734" width="12.068965517241379" height="14" as="geometry"/>
                </mxCell>
                <mxCell id="q7tcV7XlQ2ZevTYFs-G4-11" value="" style="shape=image;verticalLabelPosition=bottom;labelBackgroundColor=default;verticalAlign=top;aspect=fixed;imageAspect=0;image=data:image/png,iVBORw0KGgoAAAANSUhEUgAAAB4AAACDCAYAAACayKs/AAAMbGlDQ1BJQ0MgUHJvZmlsZQAASImVVwdYU8kWnluSkJCEEoiAlNCbINKLlBBaBAGpgqiEJJBQYkwIKvayrIJrF1Gs6KqIomsBZFERe1kUe18sqCjroi6KovImBXTdV753vm/u/PfMmf+UO3PvHQB0enlSaT6qC0CBpFCWEBnKGpuWziI9BQTAAHRgBNx5fLmUHR8fA6AM9H+XdzcAouyvuii5/jn+X0VfIJTzAUAyIM4SyPkFEDcDgK/nS2WFABCVeusphVIlngOxgQwGCPEqJc5R451KnKXGTSqbpAQOxJcB0KLyeLIcAOj3oJ5VxM+BPPRPELtJBGIJADrDIA7ii3gCiJWxDysomKTEFRA7QHspxDAe4Jv1DWfO3/izBvl5vJxBrM5LJVphYrk0nzft/yzN/5aCfMWADzvYqCJZVIIyf1jDW3mTopWYCnGXJCs2TllriHvFAnXdAUApIkVUstoeNeXLObB+gAmxm4AXFg2xKcQRkvzYGI0+K1scwYUYrhZ0qriQmwSxEcQLhfLwRI3NZtmkBI0vtC5bxmFr9Gd5MpVfpa8Hirxktob/jUjI1fBj9GJRUirEFIhtisQpsRDTIXaV5yVGa2xGFos4sQM2MkWCMn4biBOEkshQNT9WlC2LSNDYlxbIB/LFNovE3FgN3l8oSopS1wc7yeep4oe5YJeFEnbyAI9QPjZmIBeBMCxcnTv2XChJTtTw9EoLQxPUc3GKND9eY49bCfMjlXoriD3lRYmauXhKIVycan48W1oYn6SOEy/O5Y2KV8eDLwMxgAPCAAsoYMsCk0AuELd21XfBO/VIBOABGcgBQuCi0QzMSFWNSOA1ERSDPyASAvngvFDVqBAUQf3nQa366gKyVaNFqhl54CnEBSAa5MN7hWqWZNBbCngCNeJ/eOfBxofx5sOmHP/3+gHtVw0bamI0GsWAR5bOgCUxnBhGjCJGEB1xEzwID8Bj4DUENnfcF/cbyOOrPeEpoY3wiHCd0E64PVE8T/ZdlKNBO+SP0NQi69ta4HaQ0wsPxQMhO2TGmbgJcME9oR82Hgw9e0EtRxO3siqs77j/lsE3T0NjR3Yjo+Qh5BCyw/cz6U50r0EWZa2/rY861qzBenMGR773z/mm+gLYR39viS3EDmBnsOPYOawJqwcs7BjWgF3Ejijx4Op6olpdA94SVPHkQR7xP/wNPFllJeVuNW6dbp/UY4XCqYXKjceZJJ0mE+eIClls+HUQsrgSvuswlrubuzsAym+N+vX1lqn6hiDM81918+EeD5T09/c3fdVFfwTgoCXc/u1fdfZX4GsCvqfPLucrZEVqHa68EOBbQgfuNGNgDqyBA8zHHXiDABACwsEoEAeSQBqYAKMXwXUuA1PADDAXlIAysAysBuvAJrAV7AR7wH5QD5rAcXAaXACXwXVwF66eDvASdIN3oA9BEBJCQxiIMWKB2CLOiDviiwQh4UgMkoCkIZlIDiJBFMgMZD5ShqxA1iFbkGrkF+Qwchw5h7Qht5GHSCfyBvmIYigVNUDNUDt0OOqLstFoNAkdj+agk9FidAG6BK1Aq9DdaB16HL2AXkfb0ZdoDwYwbYyJWWIumC/GweKwdCwbk2GzsFKsHKvCarFG+JyvYu1YF/YBJ+IMnIW7wBUchSfjfHwyPgtfjK/Dd+J1+En8Kv4Q78a/EGgEU4IzwZ/AJYwl5BCmEEoI5YTthEOEU3AvdRDeEYlEJtGe6AP3YhoxlziduJi4gbiX2ExsIz4m9pBIJGOSMymQFEfikQpJJaS1pN2kY6QrpA5Sr5a2loWWu1aEVrqWRGueVrnWLq2jWle0nmn1kXXJtmR/chxZQJ5GXkreRm4kXyJ3kPsoehR7SiAliZJLmUupoNRSTlHuUd5qa2tbaftpj9EWa8/RrtDep31W+6H2B6o+1YnKoWZQFdQl1B3UZupt6lsajWZHC6Gl0wppS2jVtBO0B7ReOoPuSufSBfTZ9Ep6Hf0K/ZUOWcdWh60zQadYp1zngM4lnS5dsq6dLkeXpztLt1L3sO5N3R49ht4IvTi9Ar3Ferv0zuk91yfp2+mH6wv0F+hv1T+h/5iBMawZHAafMZ+xjXGK0WFANLA34BrkGpQZ7DFoNeg21Df0NEwxnGpYaXjEsJ2JMe2YXGY+cylzP/MG8+MQsyHsIcIhi4bUDrky5L3RUKMQI6FRqdFeo+tGH41ZxuHGecbLjeuN75vgJk4mY0ymmGw0OWXSNdRgaMBQ/tDSofuH3jFFTZ1ME0ynm241vWjaY2ZuFmkmNVtrdsKsy5xpHmKea77K/Kh5pwXDIshCbLHK4pjFC5Yhi83KZ1WwTrK6LU0toywVllssWy37rOytkq3mWe21um9Nsfa1zrZeZd1i3W1jYTPaZoZNjc0dW7Ktr63Ido3tGdv3dvZ2qXY/2tXbPbc3sufaF9vX2N9zoDkEO0x2qHK45kh09HXMc9zgeNkJdfJyEjlVOl1yRp29ncXOG5zbhhGG+Q2TDKsadtOF6sJ2KXKpcXnoynSNcZ3nWu/6arjN8PThy4efGf7Fzcst322b290R+iNGjZg3onHEG3cnd757pfs1D5pHhMdsjwaP157OnkLPjZ63vBheo71+9Grx+uzt4y3zrvXu9LHxyfRZ73PT18A33nex71k/gl+o32y/Jr8P/t7+hf77/f8McAnIC9gV8Hyk/UjhyG0jHwdaBfICtwS2B7GCMoM2B7UHWwbzgquCH4VYhwhCtoc8Yzuyc9m72a9C3UJloYdC33P8OTM5zWFYWGRYaVhruH54cvi68AcRVhE5ETUR3ZFekdMjm6MIUdFRy6Nucs24fG41t3uUz6iZo05GU6MTo9dFP4pxipHFNI5GR48avXL0vVjbWElsfRyI48atjLsfbx8/Of7XMcQx8WMqxzxNGJEwI+FMIiNxYuKuxHdJoUlLk+4mOyQrkltSdFIyUqpT3qeGpa5IbR87fOzMsRfSTNLEaQ3ppPSU9O3pPePCx60e15HhlVGScWO8/fip489NMJmQP+HIRJ2JvIkHMgmZqZm7Mj/x4nhVvJ4sbtb6rG4+h7+G/1IQIlgl6BQGClcIn2UHZq/Ifp4TmLMyp1MULCoXdYk54nXi17lRuZty3+fF5e3I689Pzd9boFWQWXBYoi/Jk5ycZD5p6qQ2qbO0RNo+2X/y6sndsmjZdjkiHy9vKDSAP/UXFQ6KHxQPi4KKKot6p6RMOTBVb6pk6sVpTtMWTXtWHFH883R8On96ywzLGXNnPJzJnrllFjIra1bLbOvZC2Z3zImcs3MuZW7e3N/muc1bMe+v+anzGxeYLZiz4PEPkT/UlNBLZCU3fwz4cdNCfKF4Yesij0VrF30pFZSeL3MrKy/7tJi/+PxPI36q+Kl/SfaS1qXeSzcuIy6TLLuxPHj5zhV6K4pXPF45emXdKtaq0lV/rZ64+ly5Z/mmNZQ1ijXtFTEVDWtt1i5b+2mdaN31ytDKvetN1y9a/36DYMOVjSEbazeZbSrb9HGzePOtLZFb6qrsqsq3ErcWbX26LWXbmZ99f67ebrK9bPvnHZId7TsTdp6s9qmu3mW6a2kNWqOo6dydsfvynrA9DbUutVv2MveW7QP7FPte/JL5y4390ftbDvgeqD1oe3D9Icah0jqkblpdd72ovr0hraHt8KjDLY0BjYd+df11R5NlU+URwyNLj1KOLjjaf6z4WE+ztLnreM7xxy0TW+6eGHvi2skxJ1tPRZ86ezri9Ikz7DPHzgaebTrnf+7wed/z9Re8L9Rd9Lp46Dev3w61erfWXfK51HDZ73Jj28i2o1eCrxy/Gnb19DXutQvXY6+33Ui+cetmxs32W4Jbz2/n3359p+hO39059wj3Su/r3i9/YPqg6nfH3/e2e7cfeRj28OKjxEd3H/Mfv3wif/KpY8FT2tPyZxbPqp+7P2/qjOi8/GLci46X0pd9XSV/6P2x/pXDq4N/hvx5sXtsd8dr2ev+N4vfGr/d8ZfnXy098T0P3hW863tf2mvcu/OD74czH1M/Puub8on0qeKz4+fGL9Ff7vUX9PdLeTKe6lcAgw3NzgbgzQ4AaGkAMOC5jTJOfRZUCaI+v6oQ+E9YfV5UiTcAtbBT/sZzmgHYB5vdHMgNm/IXPikEoB4eg00j8mwPdzUXFZ6ECL39/W/NACA1AvBZ1t/ft6G///M2GOxtAJonq8+gSiHCM8PmECW6bpThCb4T9fn0mxy/74EyAtW0v/X/AtSHj4IYbuJyAAAAOGVYSWZNTQAqAAAACAABh2kABAAAAAEAAAAaAAAAAAACoAIABAAAAAEAAAAeoAMABAAAAAEAAACDAAAAAMAf9p4AAAU/SURBVGgF7Ztbc9s2EIVBUhfLsuJJ6sTjmeT//6X2te1M2yTNxYkvskSq+wFWA8gOd6kg0UOwY1oSd4nDPQRB7BFUbcTcAaw+AKaHLMA/jPmDUT2ypth2zt21G7eSjVf5S6ypnJvIv7FsvDZKSmZgwN7fdPdb627XKfLRqHJPZ41std9mtZxJj5mByRTgPz+u3R+yXd6mwE+OKvfqlH0jdzKp3GycCThk3HrQ396s3Nsr4T6ys3ngdi6g5ycKz/70ooP73nJNr1ch678+te5v2WJbdY17cdL4mN3rH8dt35up7gR4JVhLubacwNVdSjX78BFDrGZmYEb0tbS4XIfMrwQotgAcYiyjvxmYLNZyWZfC41czFh8xWTN2biMN0vCXeznOmF6PjxhiNdO7n9bCnv4CvCdxww8rVA/nbM8jCtV7Ejf8sEL1cM72PKJQvSdxww8rVA/nbM8jzJO9qqrcSMqSqZQqx+PazSfphJ59+IghVjMzMEUZZcmTae3OjmuZ2DVJ2+zDRwyxmtmBpRtSmHngefNgCnsm+/ARo1WKnJQZuBb6PPBR7X6R7HaTekbG4iOGWM3MwCPJmILsmZShF4tGrnPa+KmA4iOGWM0GAFduIVQ+nzNZH0ntlHau+QRf7WPoYJqZgcfSlwDG6EB3bdq5Jvd+YojVrLIKbKF2CtVgKFXSpkmSTAHlVUvaDJzCfPsnQzf4dpDHWvj5gM292le98o9OhuDL59i4gRij6VSMH3zuMzuwIIWiPLxyArEByMCx7dXa4GUGBsiLL1L5I7JwErFxC019ayFr7XYyA0MvYEH16fxJxMDjhhOp/ZNp4s+pn2wzMKIKElOQFVt3syMpzuTh8HQm11/G66Bpxqf18L0ZOJUUW3e5TMdqHonfSVJ091pm67ykeJ0qe2fHje/JPCzOReHTzJzxVr1FQP1VtExkxdguFp1/JCIrEquZGRj96lYuNBS/lWz/+ZwCcxvhIyZoXf3QP9+QWTLu7xEZvYXqjGT2N1Wo7ucno7dQnZHM/qYK1f38ZPQWqjOS2d9Uobqfn4xe87w6CGxBNqRqoHKMjX1B2avzCmwUYqzxeHWKxrVx21UQW3CA8RFDrGbmjNGxaPTlaePVgItlWh+RLb4ArMEi0RmNpTQ0yiHIho+XqQGYWM3MwFsts6pEKB0HdSBunNoJzRqNM6uWGYRydy83iF7tFYAv0EGK+A5COZoGWaHnwGS3SekM4kuQFDX9w7di1TKpeFlpgeaSQ24qWib0/xA72NPJfB/TqXRJ0S6Um4EB/bRk6/x2t/OQiL8aWEzDwsG+a2YG5mkE6GtRe97IsrnHvwzhpuP7qUYeFH2wA8bqkHHnQX//sHYfb1Nlj69/aI4vSsKYng4wu6dhznirZb6TlYqIa++uU2AWl53IE4ovw4jVzAwcBLaNLIvs3L8CCuWxQfK5+FivaRHYzMCsRKVRr+xdte61bLExPl/KM5oYYjWzA0tKN0JnkBS7B5IiTyd8xBikTPtEYFcof7g8svtfuSdWs4ONXAVYuzTZ/IXqbFRqDRWqNYay+QvV2ajUGipUawxl8xeqs1GpNWSe7KEEoHUxqdv+pilunH34wiKy/sk8x5mBmb4iqkwFAIEF5Sc29uEjhljNzMAsKAkCC+qOAMsWmweW1ojRFp9wnBmYLBBfwvLIr2QsSzKIyZoxSg9ZUZCxZm+80zoSIz5iiNXMnHHQMtErw2T9YpFO2sNPy9AyKVF1ZDPwrqTY92M6i6Rolpty/3zQDKxds6H+MlYPZWzv+INR/R9olkHlkHR04gAAAABJRU5ErkJggg==;" parent="q7tcV7XlQ2ZevTYFs-G4-10" vertex="1">
                    <mxGeometry x="22.998620689655183" y="1.7690909090908917" width="6.87" height="30" as="geometry"/>
                </mxCell>
            </root>
        </mxGraphModel>
    </diagram>
</mxfile>